<svg xmlns="http://www.w3.org/2000/svg" width="974.2216186523438" height="579.8228149414062" viewBox="-680.3432006835938 -292.45379638671875 974.2216186523438 579.8228149414062"><title>Neo4j Graph Visualization</title><desc>Created using Neo4j (http://www.neo4j.com/)</desc><g class="layer relationships"><g class="relationship" transform="translate(7.183633956976088 -5.573755326350437) rotate(184.39815302077568)"><path class="b-outline" fill="#A5ABB6" stroke="none" d="M 25 0.5 L 76.44307632545545 0.5 L 76.44307632545545 -0.5 L 25 -0.5 Z M 131.48995132545545 0.5 L 182.9330276509109 0.5 L 182.9330276509109 3.5 L 189.9330276509109 0 L 182.9330276509109 -3.5 L 182.9330276509109 -0.5 L 131.48995132545545 -0.5 Z"/><text text-anchor="middle" pointer-events="none" font-size="8px" fill="#000000" x="103.96651382545545" y="3" transform="rotate(180 103.96651382545545 0)" font-family="Helvetica Neue, Helvetica, Arial, sans-serif">has_problem</text></g><g class="relationship" transform="translate(-207.11646424732578 -22.056300178824237) rotate(233.12146933850556)"><path class="b-outline" fill="#A5ABB6" stroke="none" d="M 25 0.5 L 28.480291522319114 0.5 L 28.480291522319114 -0.5 L 25 -0.5 Z M 57.62482277231911 0.5 L 61.10511429463823 0.5 L 61.10511429463823 3.5 L 68.10511429463823 0 L 61.10511429463823 -3.5 L 61.10511429463823 -0.5 L 57.62482277231911 -0.5 Z"/><text text-anchor="middle" pointer-events="none" font-size="8px" fill="#000000" x="43.05255714731911" y="3" transform="rotate(180 43.05255714731911 0)" font-family="Helvetica Neue, Helvetica, Arial, sans-serif">has_…</text></g><g class="relationship" transform="translate(7.183633956976088 -5.573755326350437) rotate(537.9677043789237)"><path class="b-outline" fill="#A5ABB6" stroke="none" d="M 25 0.5 L 178.46879418669585 0.5 L 178.46879418669585 -0.5 L 25 -0.5 Z M 229.25785668669585 0.5 L 382.7266508733917 0.5 L 382.7266508733917 3.5 L 389.7266508733917 0 L 382.7266508733917 -3.5 L 382.7266508733917 -0.5 L 229.25785668669585 -0.5 Z"/><text text-anchor="middle" pointer-events="none" font-size="8px" fill="#000000" x="203.86332543669585" y="3" transform="rotate(180 203.86332543669585 0)" font-family="Helvetica Neue, Helvetica, Arial, sans-serif">has_disease</text></g><g class="relationship" transform="translate(7.183633956976088 -5.573755326350437) rotate(425.33324669044913)"><path class="b-outline" fill="#A5ABB6" stroke="none" d="M 25 0.5 L 95.62988682198554 0.5 L 95.62988682198554 -0.5 L 25 -0.5 Z M 145.59082432198554 0.5 L 216.22071114397107 0.5 L 216.22071114397107 3.5 L 223.22071114397107 0 L 216.22071114397107 -3.5 L 216.22071114397107 -0.5 L 145.59082432198554 -0.5 Z"/><text text-anchor="middle" pointer-events="none" font-size="8px" fill="#000000" x="120.61035557198554" y="3" font-family="Helvetica Neue, Helvetica, Arial, sans-serif">has_proffile</text></g><g class="relationship" transform="translate(7.183633956976088 -5.573755326350437) rotate(315.6513103173671)"><path class="b-outline" fill="#A5ABB6" stroke="none" d="M 25 0.5 L 27.29738013247527 0.5 L 27.29738013247527 -0.5 L 25 -0.5 Z M 56.44191138247527 0.5 L 58.73929151495054 0.5 L 58.73929151495054 3.5 L 65.73929151495054 0 L 58.73929151495054 -3.5 L 58.73929151495054 -0.5 L 56.44191138247527 -0.5 Z"/><text text-anchor="middle" pointer-events="none" font-size="8px" fill="#000000" x="41.86964575747527" y="3" font-family="Helvetica Neue, Helvetica, Arial, sans-serif">has_…</text></g><g class="relationship" transform="translate(7.183633956976088 -5.573755326350437) rotate(402.1893975515628)"><path class="b-outline" fill="#A5ABB6" stroke="none" d="M 25 0.5 L 93.73044521265027 0.5 L 93.73044521265027 -0.5 L 25 -0.5 Z M 143.69138271265027 0.5 L 212.42182792530053 0.5 L 212.42182792530053 3.5 L 219.42182792530053 0 L 212.42182792530053 -3.5 L 212.42182792530053 -0.5 L 143.69138271265027 -0.5 Z"/><text text-anchor="middle" pointer-events="none" font-size="8px" fill="#000000" x="118.71091396265027" y="3" font-family="Helvetica Neue, Helvetica, Arial, sans-serif">has_proffile</text></g><g class="relationship" transform="translate(7.183633956976088 -5.573755326350437) rotate(381.05002300338003)"><path class="b-outline" fill="#A5ABB6" stroke="none" d="M 25 0.5 L 26.31125268881926 0.5 L 26.31125268881926 -0.5 L 25 -0.5 Z M 62.90109643881926 0.5 L 64.21234912763852 0.5 L 64.21234912763852 3.5 L 71.21234912763852 0 L 64.21234912763852 -3.5 L 64.21234912763852 -0.5 L 62.90109643881926 -0.5 Z"/><text text-anchor="middle" pointer-events="none" font-size="8px" fill="#000000" x="44.60617456381926" y="3" font-family="Helvetica Neue, Helvetica, Arial, sans-serif">has_pr…</text></g><g class="relationship" transform="translate(7.183633956976088 -5.573755326350437) rotate(282.5446494780754)"><path class="b-outline" fill="#A5ABB6" stroke="none" d="M 25 0.5 L 52.44690709370019 0.5 L 52.44690709370019 -0.5 L 25 -0.5 Z M 102.40784459370019 0.5 L 129.85475168740038 0.5 L 129.85475168740038 3.5 L 136.85475168740038 0 L 129.85475168740038 -3.5 L 129.85475168740038 -0.5 L 102.40784459370019 -0.5 Z"/><text text-anchor="middle" pointer-events="none" font-size="8px" fill="#000000" x="77.42737584370019" y="3" font-family="Helvetica Neue, Helvetica, Arial, sans-serif">has_proffile</text></g><g class="relationship" transform="translate(7.183633956976088 -5.573755326350437) rotate(319.6162249110482)"><path class="b-outline" fill="#A5ABB6" stroke="none" d="M 25 0.5 L 62.29207724969609 0.5 L 62.29207724969609 -0.5 L 25 -0.5 Z M 112.25301474969609 0.5 L 149.54509199939218 0.5 L 149.54509199939218 3.5 L 156.54509199939218 0 L 149.54509199939218 -3.5 L 149.54509199939218 -0.5 L 112.25301474969609 -0.5 Z"/><text text-anchor="middle" pointer-events="none" font-size="8px" fill="#000000" x="87.27254599969609" y="3" font-family="Helvetica Neue, Helvetica, Arial, sans-serif">has_proffile</text></g><g class="relationship" transform="translate(7.183633956976088 -5.573755326350437) rotate(361.14719407386633)"><path class="b-outline" fill="#A5ABB6" stroke="none" d="M 25 0.5 L 96.48165278377935 0.5 L 96.48165278377935 -0.5 L 25 -0.5 Z M 146.44259028377934 0.5 L 217.9242430675587 0.5 L 217.9242430675587 3.5 L 224.9242430675587 0 L 217.9242430675587 -3.5 L 217.9242430675587 -0.5 L 146.44259028377934 -0.5 Z"/><text text-anchor="middle" pointer-events="none" font-size="8px" fill="#000000" x="121.46212153377935" y="3" font-family="Helvetica Neue, Helvetica, Arial, sans-serif">has_proffile</text></g><g class="relationship" transform="translate(7.183633956976088 -5.573755326350437) rotate(299.96246190970544)"><path class="b-outline" fill="#A5ABB6" stroke="none" d="M 25 0.5 L 92.012690311323 0.5 L 92.012690311323 -0.5 L 25 -0.5 Z M 141.973627811323 0.5 L 208.986318122646 0.5 L 208.986318122646 3.5 L 215.986318122646 0 L 208.986318122646 -3.5 L 208.986318122646 -0.5 L 141.973627811323 -0.5 Z"/><text text-anchor="middle" pointer-events="none" font-size="8px" fill="#000000" x="116.993159061323" y="3" font-family="Helvetica Neue, Helvetica, Arial, sans-serif">has_proffile</text></g><g class="relationship" transform="translate(7.183633956976088 -5.573755326350437) rotate(278.60198935759774)"><path class="b-outline" fill="#A5ABB6" stroke="none" d="M 25 0.5 L 101.92647243273001 0.5 L 101.92647243273001 -0.5 L 25 -0.5 Z M 151.88740993273 0.5 L 228.81388236546002 0.5 L 228.81388236546002 3.5 L 235.81388236546002 0 L 228.81388236546002 -3.5 L 228.81388236546002 -0.5 L 151.88740993273 -0.5 Z"/><text text-anchor="middle" pointer-events="none" font-size="8px" fill="#000000" x="126.90694118273001" y="3" font-family="Helvetica Neue, Helvetica, Arial, sans-serif">has_proffile</text></g><g class="relationship" transform="translate(7.183633956976088 -5.573755326350437) rotate(209.74295465994732)"><path class="b-outline" fill="#A5ABB6" stroke="none" d="M 25 0.5 L 56.42490912619246 0.5 L 56.42490912619246 -0.5 L 25 -0.5 Z M 106.38584662619246 0.5 L 137.81075575238492 0.5 L 137.81075575238492 3.5 L 144.81075575238492 0 L 137.81075575238492 -3.5 L 137.81075575238492 -0.5 L 106.38584662619246 -0.5 Z"/><text text-anchor="middle" pointer-events="none" font-size="8px" fill="#000000" x="81.40537787619246" y="3" transform="rotate(180 81.40537787619246 0)" font-family="Helvetica Neue, Helvetica, Arial, sans-serif">has_proffile</text></g><g class="relationship" transform="translate(7.183633956976088 -5.573755326350437) rotate(318.82366293312185)"><path class="b-outline" fill="#A5ABB6" stroke="none" d="M 25 0.5 L 111.52191413945673 0.5 L 111.52191413945673 -0.5 L 25 -0.5 Z M 161.48285163945673 0.5 L 248.00476577891345 0.5 L 248.00476577891345 3.5 L 255.00476577891345 0 L 248.00476577891345 -3.5 L 248.00476577891345 -0.5 L 161.48285163945673 -0.5 Z"/><text text-anchor="middle" pointer-events="none" font-size="8px" fill="#000000" x="136.50238288945673" y="3" font-family="Helvetica Neue, Helvetica, Arial, sans-serif">has_proffile</text></g><g class="relationship" transform="translate(7.183633956976088 -5.573755326350437) rotate(538.0828867087874)"><path class="b-outline" fill="#A5ABB6" stroke="none" d="M 25 0.5 L 30.20038097466547 0.5 L 30.20038097466547 -0.5 L 25 -0.5 Z M 80.16131847466548 0.5 L 85.36169944933094 0.5 L 85.36169944933094 3.5 L 92.36169944933094 0 L 85.36169944933094 -3.5 L 85.36169944933094 -0.5 L 80.16131847466548 -0.5 Z"/><text text-anchor="middle" pointer-events="none" font-size="8px" fill="#000000" x="55.18084972466547" y="3" transform="rotate(180 55.18084972466547 0)" font-family="Helvetica Neue, Helvetica, Arial, sans-serif">has_proffile</text></g><g class="relationship" transform="translate(7.183633956976088 -5.573755326350437) rotate(258.03254370596363)"><path class="b-outline" fill="#A5ABB6" stroke="none" d="M 25 0.5 L 72.8241023268584 0.5 L 72.8241023268584 -0.5 L 25 -0.5 Z M 139.1795710768584 0.5 L 187.0036734037168 0.5 L 187.0036734037168 3.5 L 194.0036734037168 0 L 187.0036734037168 -3.5 L 187.0036734037168 -0.5 L 139.1795710768584 -0.5 Z"/><text text-anchor="middle" pointer-events="none" font-size="8px" fill="#000000" x="106.0018367018584" y="3" transform="rotate(180 106.0018367018584 0)" font-family="Helvetica Neue, Helvetica, Arial, sans-serif">has_assessment</text></g><g class="relationship" transform="translate(7.183633956976088 -5.573755326350437) rotate(495.16932576923153)"><path class="b-outline" fill="#A5ABB6" stroke="none" d="M 25 0.5 L 36.32826988936242 0.5 L 36.32826988936242 -0.5 L 25 -0.5 Z M 102.68373863936242 0.5 L 114.01200852872483 0.5 L 114.01200852872483 3.5 L 121.01200852872483 0 L 114.01200852872483 -3.5 L 114.01200852872483 -0.5 L 102.68373863936242 -0.5 Z"/><text text-anchor="middle" pointer-events="none" font-size="8px" fill="#000000" x="69.50600426436242" y="3" transform="rotate(180 69.50600426436242 0)" font-family="Helvetica Neue, Helvetica, Arial, sans-serif">has_assessment</text></g><g class="relationship" transform="translate(7.183633956976088 -5.573755326350437) rotate(414.7870169681996)"><path class="b-outline" fill="#A5ABB6" stroke="none" d="M 25 0.5 L 43.63828999269698 0.5 L 43.63828999269698 -0.5 L 25 -0.5 Z M 109.99375874269698 0.5 L 128.63204873539397 0.5 L 128.63204873539397 3.5 L 135.63204873539397 0 L 128.63204873539397 -3.5 L 128.63204873539397 -0.5 L 109.99375874269698 -0.5 Z"/><text text-anchor="middle" pointer-events="none" font-size="8px" fill="#000000" x="76.81602436769698" y="3" font-family="Helvetica Neue, Helvetica, Arial, sans-serif">has_assessment</text></g><g class="relationship" transform="translate(7.183633956976088 -5.573755326350437) rotate(452.86123516345435)"><path class="b-outline" fill="#A5ABB6" stroke="none" d="M 25 0.5 L 27.94631894469419 0.5 L 27.94631894469419 -0.5 L 25 -0.5 Z M 80.86428769469418 0.5 L 83.81060663938838 0.5 L 83.81060663938838 3.5 L 90.81060663938838 0 L 83.81060663938838 -3.5 L 83.81060663938838 -0.5 L 80.86428769469418 -0.5 Z"/><text text-anchor="middle" pointer-events="none" font-size="8px" fill="#000000" x="54.40530331969419" y="3" transform="rotate(180 54.40530331969419 0)" font-family="Helvetica Neue, Helvetica, Arial, sans-serif">has_assess…</text></g><g class="relationship" transform="translate(7.183633956976088 -5.573755326350437) rotate(338.93244409236536)"><path class="b-outline" fill="#A5ABB6" stroke="none" d="M 25 0.5 L 87.68990926365306 0.5 L 87.68990926365306 -0.5 L 25 -0.5 Z M 154.04537801365308 0.5 L 216.73528727730613 0.5 L 216.73528727730613 3.5 L 223.73528727730613 0 L 216.73528727730613 -3.5 L 216.73528727730613 -0.5 L 154.04537801365308 -0.5 Z"/><text text-anchor="middle" pointer-events="none" font-size="8px" fill="#000000" x="120.86764363865306" y="3" font-family="Helvetica Neue, Helvetica, Arial, sans-serif">has_assessment</text></g><g class="relationship" transform="translate(7.183633956976088 -5.573755326350437) rotate(350.33986938266526)"><path class="b-outline" fill="#A5ABB6" stroke="none" d="M 25 0.5 L 43.81096205610325 0.5 L 43.81096205610325 -0.5 L 25 -0.5 Z M 110.16643080610325 0.5 L 128.9773928622065 0.5 L 128.9773928622065 3.5 L 135.9773928622065 0 L 128.9773928622065 -3.5 L 128.9773928622065 -0.5 L 110.16643080610325 -0.5 Z"/><text text-anchor="middle" pointer-events="none" font-size="8px" fill="#000000" x="76.98869643110325" y="3" font-family="Helvetica Neue, Helvetica, Arial, sans-serif">has_assessment</text></g><g class="relationship" transform="translate(7.183633956976088 -5.573755326350437) rotate(448.01355883950623)"><path class="b-outline" fill="#A5ABB6" stroke="none" d="M 25 0.5 L 68.73352577161656 0.5 L 68.73352577161656 -0.5 L 25 -0.5 Z M 135.08899452161654 0.5 L 178.8225202932331 0.5 L 178.8225202932331 3.5 L 185.8225202932331 0 L 178.8225202932331 -3.5 L 178.8225202932331 -0.5 L 135.08899452161654 -0.5 Z"/><text text-anchor="middle" pointer-events="none" font-size="8px" fill="#000000" x="101.91126014661656" y="3" font-family="Helvetica Neue, Helvetica, Arial, sans-serif">has_assessment</text></g><g class="relationship" transform="translate(7.183633956976088 -5.573755326350437) rotate(474.59244606225775)"><path class="b-outline" fill="#A5ABB6" stroke="none" d="M 25 0.5 L 76.5972769388145 0.5 L 76.5972769388145 -0.5 L 25 -0.5 Z M 131.6441519388145 0.5 L 183.241428877629 0.5 L 183.241428877629 3.5 L 190.241428877629 0 L 183.241428877629 -3.5 L 183.241428877629 -0.5 L 131.6441519388145 -0.5 Z"/><text text-anchor="middle" pointer-events="none" font-size="8px" fill="#000000" x="104.1207144388145" y="3" transform="rotate(180 104.1207144388145 0)" font-family="Helvetica Neue, Helvetica, Arial, sans-serif">has_problem</text></g><g class="relationship" transform="translate(7.183633956976088 -5.573755326350437) rotate(381.4484969188191)"><path class="b-outline" fill="#A5ABB6" stroke="none" d="M 25 0.5 L 63.3996922645901 0.5 L 63.3996922645901 -0.5 L 25 -0.5 Z M 118.4465672645901 0.5 L 156.8462595291802 0.5 L 156.8462595291802 3.5 L 163.8462595291802 0 L 156.8462595291802 -3.5 L 156.8462595291802 -0.5 L 118.4465672645901 -0.5 Z"/><text text-anchor="middle" pointer-events="none" font-size="8px" fill="#000000" x="90.9231297645901" y="3" font-family="Helvetica Neue, Helvetica, Arial, sans-serif">has_problem</text></g><g class="relationship" transform="translate(7.183633956976088 -5.573755326350437) rotate(243.33722549789184)"><path class="b-outline" fill="#A5ABB6" stroke="none" d="M 25 0.5 L 36.86598549764388 0.5 L 36.86598549764388 -0.5 L 25 -0.5 Z M 91.91286049764388 0.5 L 103.77884599528775 0.5 L 103.77884599528775 3.5 L 110.77884599528775 0 L 103.77884599528775 -3.5 L 103.77884599528775 -0.5 L 91.91286049764388 -0.5 Z"/><text text-anchor="middle" pointer-events="none" font-size="8px" fill="#000000" x="64.38942299764388" y="3" transform="rotate(180 64.38942299764388 0)" font-family="Helvetica Neue, Helvetica, Arial, sans-serif">has_problem</text></g><g class="relationship" transform="translate(-407.2821524577779 9.133618207344341) rotate(231.87366431995824)"><path class="b-outline" fill="#569480" stroke="none" d="M 6.953439040707552 24.018736134675446 L 17.306200844808384 62.65576918623819 A 17.916697508022974 17.916697508022974 0 1 1 -17.306200844808384 62.65576918623819 L -8.765172356425198 30.780216918698923 L -4.901469051268926 31.815493099109005 L -6.4704761275630185 24.148145657226706 L -11.662949835292403 30.00375978339136 L -7.79924653013613 31.039035963801442 L -16.340275018519314 62.91458823134071 A 16.916697508022974 16.916697508022974 0 1 0 16.340275018519314 62.91458823134071 L 5.987513214418485 24.277555179777966 Z"/><text text-anchor="middle" pointer-events="none" font-size="8px" fill="#000000" x="0" y="94.20964923467838" transform="rotate(180 0 91.20964923467838)" font-family="Helvetica Neue, Helvetica, Arial, sans-serif">acompany…</text></g><g class="relationship" transform="translate(-53.745558159597806 -126.91430323937783) rotate(216.2117067047089)"><path class="b-outline" fill="#A5ABB6" stroke="none" d="M 25 0.5 L 26.59155866694929 0.5 L 26.59155866694929 -0.5 L 25 -0.5 Z M 55.73608991694929 0.5 L 57.32764858389858 0.5 L 57.32764858389858 3.5 L 64.32764858389858 0 L 57.32764858389858 -3.5 L 57.32764858389858 -0.5 L 55.73608991694929 -0.5 Z"/><text text-anchor="middle" pointer-events="none" font-size="8px" fill="#000000" x="41.16382429194929" y="3" transform="rotate(180 41.16382429194929 0)" font-family="Helvetica Neue, Helvetica, Arial, sans-serif">has_…</text></g><g class="relationship" transform="translate(182.95165537425913 63.48066079033255) rotate(377.4777230009853)"><path class="b-outline" fill="#A5ABB6" stroke="none" d="M 25 0.5 L 26.66673272584641 0.5 L 26.66673272584641 -0.5 L 25 -0.5 Z M 52.22532647584641 0.5 L 53.89205920169282 0.5 L 53.89205920169282 3.5 L 60.89205920169282 0 L 53.89205920169282 -3.5 L 53.89205920169282 -0.5 L 52.22532647584641 -0.5 Z"/><text text-anchor="middle" pointer-events="none" font-size="8px" fill="#000000" x="39.44602960084641" y="3" font-family="Helvetica Neue, Helvetica, Arial, sans-serif">has…</text></g><g class="relationship" transform="translate(-82.3914358084333 190.1433353474215) rotate(502.9703818812487)"><path class="b-outline" fill="#A5ABB6" stroke="none" d="M 25 0.5 L 30.122322314422895 0.5 L 30.122322314422895 -0.5 L 25 -0.5 Z M 30.122322314422895 0.5 L 35.24464462884579 0.5 L 35.24464462884579 3.5 L 42.24464462884579 0 L 35.24464462884579 -3.5 L 35.24464462884579 -0.5 L 30.122322314422895 -0.5 Z"/><text text-anchor="middle" pointer-events="none" font-size="8px" fill="#000000" x="30.122322314422895" y="3" transform="rotate(180 30.122322314422895 0)" font-family="Helvetica Neue, Helvetica, Arial, sans-serif"/></g><g class="relationship" transform="translate(-407.2821524577779 9.133618207344341) rotate(443.49601518113695)"><path class="b-outline" fill="#604A0E" stroke="none" d="M 25 0.5 L 41.023774303513875 0.5 L 41.023774303513875 -0.5 L 25 -0.5 Z M 114.86752430351387 0.5 L 130.89129860702775 0.5 L 130.89129860702775 3.5 L 137.89129860702775 0 L 130.89129860702775 -3.5 L 130.89129860702775 -0.5 L 114.86752430351387 -0.5 Z"/><text text-anchor="middle" pointer-events="none" font-size="8px" fill="#000000" x="77.94564930351387" y="3" font-family="Helvetica Neue, Helvetica, Arial, sans-serif">recommand_drug</text></g><g class="relationship" transform="translate(-407.2821524577779 9.133618207344341) rotate(536.7632208922691)"><path class="b-outline" fill="#604A0E" stroke="none" d="M 24.018736134675446,6.953439040707552 L 24.277555179777966,5.987513214418485 A 80.68258242614624 80.68258242614624 0 0 0 25.73139420496032,6.362604947448773 L 25.49059440244356,7.333179753997911 A 81.68258242614624 81.68258242614624 0 0 1 24.018736134675446,6.953439040707552 Z M 61.981476385007255,7.985803916594406 L 61.77553612497081,7.007239350867579 A 80.68258242614624 80.68258242614624 0 0 0 63.24185783014799,6.684373471194538 L 62.56951518195694,3.760684814134174 L 70.17585513798736,5.6028554015921355 L 64.13831469440274,10.58262501394169 L 63.465972046211675,7.658936356881327 A 81.68258242614624 81.68258242614624 0 0 1 61.981476385007255,7.985803916594406"/><text text-anchor="middle" pointer-events="none" font-size="8px" fill="#000000" x="43.70805973425886" y="12.223725197291913" transform="rotate(180 43.70805973425886 9.223725197291913)" font-family="Helvetica Neue, Helvetica, Arial, sans-serif">recom…</text></g><g class="relationship" transform="translate(-407.2821524577779 9.133618207344341) rotate(536.7632208922691)"><path class="b-outline" fill="#ECB5C9" stroke="none" d="M 24.018736134675446,-6.953439040707552 L 24.277555179777966,-5.987513214418485 A 80.68258242614624 80.68258242614624 0 0 1 25.723858380258694,-6.360734922917587 L 25.482965176855707,-7.3312865519174295 A 81.68258242614624 81.68258242614624 0 0 0 24.018736134675446,-6.953439040707552 Z M 61.98916842821544,-7.9841847289985 L 61.7831339982473,-7.005639986195334 A 80.68258242614624 80.68258242614624 0 0 1 63.24185783014799,-6.684373471194538 L 62.56951518195694,-3.760684814134174 L 70.17585513798736,-5.6028554015921355 L 64.13831469440274,-10.58262501394169 L 63.465972046211675,-7.658936356881327 A 81.68258242614624 81.68258242614624 0 0 0 61.98916842821544,-7.9841847289985"/><text text-anchor="middle" pointer-events="none" font-size="8px" fill="#000000" x="43.70805973425885" y="-6.2237251972919125" transform="rotate(180 43.70805973425885 -9.223725197291913)" font-family="Helvetica Neue, Helvetica, Arial, sans-serif">comm…</text></g><g class="relationship" transform="translate(-407.2821524577779 9.133618207344341) rotate(535.9048612493467)"><path class="b-outline" fill="#604A0E" stroke="none" d="M 25 0.5 L 55.12931005763879 0.5 L 55.12931005763879 -0.5 L 25 -0.5 Z M 128.9730600576388 0.5 L 159.10237011527758 0.5 L 159.10237011527758 3.5 L 166.10237011527758 0 L 159.10237011527758 -3.5 L 159.10237011527758 -0.5 L 128.9730600576388 -0.5 Z"/><text text-anchor="middle" pointer-events="none" font-size="8px" fill="#000000" x="92.05118505763879" y="3" transform="rotate(180 92.05118505763879 0)" font-family="Helvetica Neue, Helvetica, Arial, sans-serif">recommand_drug</text></g><g class="relationship" transform="translate(-407.2821524577779 9.133618207344341) rotate(474.24729380232117)"><path class="b-outline" fill="#604A0E" stroke="none" d="M 24.018736134675446,6.953439040707552 L 24.277555179777966,5.987513214418485 A 271.19158057084485 271.19158057084485 0 0 0 55.266899315514614,12.380031036665514 L 55.12235131109303,13.369528825656346 A 272.19158057084485 272.19158057084485 0 0 1 24.018736134675446,6.953439040707552 Z M 128.87140688023118,14.045080567160142 L 128.74500948871338,13.053100880161708 A 271.19158057084485 271.19158057084485 0 0 0 159.84625644398741,7.229341621923841 L 159.12301324591246,4.317826676669686 L 166.76033184925961,6.027026650624634 L 160.81058070808737,11.111361548929382 L 160.08733751001242,8.199846603675226 A 272.19158057084485 272.19158057084485 0 0 1 128.87140688023118,14.045080567160142"/><text text-anchor="middle" pointer-events="none" font-size="8px" fill="#000000" x="91.97847234496186" y="18.716744383763285" transform="rotate(180 91.97847234496186 15.716744383763285)" font-family="Helvetica Neue, Helvetica, Arial, sans-serif">recommand_drug</text></g><g class="relationship" transform="translate(-407.2821524577779 9.133618207344341) rotate(474.24729380232117)"><path class="b-outline" fill="#ECB5C9" stroke="none" d="M 24.018736134675446,-6.953439040707552 L 24.277555179777966,-5.987513214418485 A 271.19158057084485 271.19158057084485 0 0 1 61.169145432047365,-13.176152811941165 L 61.04636154767739,-14.16858624433803 A 272.19158057084485 272.19158057084485 0 0 0 24.018736134675446,-6.953439040707552 Z M 122.93375297720394,-14.735483470813676 L 122.82916983097093,-13.740967324376584 A 271.19158057084485 271.19158057084485 0 0 1 159.84625644398741,-7.229341621923841 L 159.12301324591246,-4.317826676669686 L 166.76033184925961,-6.027026650624634 L 160.81058070808737,-11.111361548929382 L 160.08733751001242,-8.199846603675226 A 272.19158057084485 272.19158057084485 0 0 0 122.93375297720394,-14.735483470813676"/><text text-anchor="middle" pointer-events="none" font-size="8px" fill="#000000" x="91.9784723449618" y="-12.716744383763285" transform="rotate(180 91.9784723449618 -15.716744383763285)" font-family="Helvetica Neue, Helvetica, Arial, sans-serif">common_drug</text></g><g class="relationship" transform="translate(-407.2821524577779 9.133618207344341) rotate(432.7627471182934)"><path class="b-outline" fill="#DA7194" stroke="none" d="M 25 0.5 L 96.57752591051458 0.5 L 96.57752591051458 -0.5 L 25 -0.5 Z M 147.13221341051457 0.5 L 218.70973932102916 0.5 L 218.70973932102916 3.5 L 225.70973932102916 0 L 218.70973932102916 -3.5 L 218.70973932102916 -0.5 L 147.13221341051457 -0.5 Z"/><text text-anchor="middle" pointer-events="none" font-size="8px" fill="#000000" x="121.85486966051458" y="3" font-family="Helvetica Neue, Helvetica, Arial, sans-serif">need_check</text></g><g class="relationship" transform="translate(-407.2821524577779 9.133618207344341) rotate(505.7743974546963)"><path class="b-outline" fill="#DA7194" stroke="none" d="M 25 0.5 L 53.24013366202239 0.5 L 53.24013366202239 -0.5 L 25 -0.5 Z M 103.79482116202239 0.5 L 132.03495482404477 0.5 L 132.03495482404477 3.5 L 139.03495482404477 0 L 132.03495482404477 -3.5 L 132.03495482404477 -0.5 L 103.79482116202239 -0.5 Z"/><text text-anchor="middle" pointer-events="none" font-size="8px" fill="#000000" x="78.51747741202239" y="3" transform="rotate(180 78.51747741202239 0)" font-family="Helvetica Neue, Helvetica, Arial, sans-serif">need_check</text></g><g class="relationship" transform="translate(-407.2821524577779 9.133618207344341) rotate(455.12444367008936)"><path class="b-outline" fill="#DA7194" stroke="none" d="M 25 0.5 L 96.3404291707848 0.5 L 96.3404291707848 -0.5 L 25 -0.5 Z M 146.8951166707848 0.5 L 218.2355458415696 0.5 L 218.2355458415696 3.5 L 225.2355458415696 0 L 218.2355458415696 -3.5 L 218.2355458415696 -0.5 L 146.8951166707848 -0.5 Z"/><text text-anchor="middle" pointer-events="none" font-size="8px" fill="#000000" x="121.6177729207848" y="3" transform="rotate(180 121.6177729207848 0)" font-family="Helvetica Neue, Helvetica, Arial, sans-serif">need_check</text></g><g class="relationship" transform="translate(-407.2821524577779 9.133618207344341) rotate(265.7657054764436)"><path class="b-outline" fill="#DA7194" stroke="none" d="M 25 0.5 L 57.853794808268276 0.5 L 57.853794808268276 -0.5 L 25 -0.5 Z M 108.40848230826828 0.5 L 141.26227711653655 0.5 L 141.26227711653655 3.5 L 148.26227711653655 0 L 141.26227711653655 -3.5 L 141.26227711653655 -0.5 L 108.40848230826828 -0.5 Z"/><text text-anchor="middle" pointer-events="none" font-size="8px" fill="#000000" x="83.13113855826828" y="3" transform="rotate(180 83.13113855826828 0)" font-family="Helvetica Neue, Helvetica, Arial, sans-serif">need_check</text></g><g class="relationship" transform="translate(-407.2821524577779 9.133618207344341) rotate(393.28128502299563)"><path class="b-outline" fill="#DA7194" stroke="none" d="M 25 0.5 L 97.68601201729852 0.5 L 97.68601201729852 -0.5 L 25 -0.5 Z M 148.24069951729854 0.5 L 220.92671153459705 0.5 L 220.92671153459705 3.5 L 227.92671153459705 0 L 220.92671153459705 -3.5 L 220.92671153459705 -0.5 L 148.24069951729854 -0.5 Z"/><text text-anchor="middle" pointer-events="none" font-size="8px" fill="#000000" x="122.96335576729852" y="3" font-family="Helvetica Neue, Helvetica, Arial, sans-serif">need_check</text></g><g class="relationship" transform="translate(-407.2821524577779 9.133618207344341) rotate(205.79097575783328)"><path class="b-outline" fill="#FFC454" stroke="none" d="M 25 0.5 L 54.8939048936239 0.5 L 54.8939048936239 -0.5 L 25 -0.5 Z M 103.0931236436239 0.5 L 132.9870285372478 0.5 L 132.9870285372478 3.5 L 139.9870285372478 0 L 132.9870285372478 -3.5 L 132.9870285372478 -0.5 L 103.0931236436239 -0.5 Z"/><text text-anchor="middle" pointer-events="none" font-size="8px" fill="#000000" x="78.9935142686239" y="3" transform="rotate(180 78.9935142686239 0)" font-family="Helvetica Neue, Helvetica, Arial, sans-serif">belongs_to</text></g><g class="relationship" transform="translate(-407.2821524577779 9.133618207344341) rotate(254.19515121449115)"><path class="b-outline" fill="#ECB5C9" stroke="none" d="M 25 1.5 L 95.67096812979088 1.5 L 95.67096812979088 -1.5 L 25 -1.5 Z M 154.34674937979088 1.5 L 225.01771750958176 1.5 L 225.01771750958176 4.5 L 234.01771750958176 0 L 225.01771750958176 -4.5 L 225.01771750958176 -1.5 L 154.34674937979088 -1.5 Z"/><text text-anchor="middle" pointer-events="none" font-size="8px" fill="#000000" x="125.00885875479088" y="3" transform="rotate(180 125.00885875479088 0)" font-family="Helvetica Neue, Helvetica, Arial, sans-serif">has_symptom</text></g><g class="relationship" transform="translate(-407.2821524577779 9.133618207344341) rotate(493.84791044964015)"><path class="b-outline" fill="#ECB5C9" stroke="none" d="M 25 1.5 L 91.78707998774516 1.5 L 91.78707998774516 -1.5 L 25 -1.5 Z M 150.46286123774516 1.5 L 217.24994122549032 1.5 L 217.24994122549032 4.5 L 226.24994122549032 0 L 217.24994122549032 -4.5 L 217.24994122549032 -1.5 L 150.46286123774516 -1.5 Z"/><text text-anchor="middle" pointer-events="none" font-size="8px" fill="#000000" x="121.12497061274516" y="3" transform="rotate(180 121.12497061274516 0)" font-family="Helvetica Neue, Helvetica, Arial, sans-serif">has_symptom</text></g><g class="relationship" transform="translate(-407.2821524577779 9.133618207344341) rotate(294.4855221590056)"><path class="b-outline" fill="#ECB5C9" stroke="none" d="M 25 1.5 L 25.582642477566985 1.5 L 25.582642477566985 -1.5 L 25 -1.5 Z M 75.27014247756699 1.5 L 75.85278495513397 1.5 L 75.85278495513397 4.5 L 84.85278495513397 0 L 75.85278495513397 -4.5 L 75.85278495513397 -1.5 L 75.27014247756699 -1.5 Z"/><text text-anchor="middle" pointer-events="none" font-size="8px" fill="#000000" x="50.426392477566985" y="3" font-family="Helvetica Neue, Helvetica, Arial, sans-serif">has_symp…</text></g><g class="relationship" transform="translate(-407.2821524577779 9.133618207344341) rotate(294.9910986254985)"><path class="b-outline" fill="#ECB5C9" stroke="none" d="M 25 1.5 L 68.02643118080873 1.5 L 68.02643118080873 -1.5 L 25 -1.5 Z M 126.70221243080873 1.5 L 169.72864361161746 1.5 L 169.72864361161746 4.5 L 178.72864361161746 0 L 169.72864361161746 -4.5 L 169.72864361161746 -1.5 L 126.70221243080873 -1.5 Z"/><text text-anchor="middle" pointer-events="none" font-size="8px" fill="#000000" x="97.36432180580873" y="3" font-family="Helvetica Neue, Helvetica, Arial, sans-serif">has_symptom</text></g><g class="relationship" transform="translate(-407.2821524577779 9.133618207344341) rotate(413.27986182168814)"><path class="b-outline" fill="#4C8EDA" stroke="none" d="M 25 0.5 L 72.41870428119323 0.5 L 72.41870428119323 -0.5 L 25 -0.5 Z M 113.39917303119323 0.5 L 160.81787731238646 0.5 L 160.81787731238646 3.5 L 167.81787731238646 0 L 160.81787731238646 -3.5 L 160.81787731238646 -0.5 L 113.39917303119323 -0.5 Z"/><text text-anchor="middle" pointer-events="none" font-size="8px" fill="#000000" x="92.90893865619323" y="3" font-family="Helvetica Neue, Helvetica, Arial, sans-serif">cure_way</text></g><g class="relationship" transform="translate(-407.2821524577779 9.133618207344341) rotate(275.4092545076228)"><path class="b-outline" fill="#4C8EDA" stroke="none" d="M 25 0.5 L 106.75037478584102 0.5 L 106.75037478584102 -0.5 L 25 -0.5 Z M 147.73084353584102 0.5 L 229.48121832168204 0.5 L 229.48121832168204 3.5 L 236.48121832168204 0 L 229.48121832168204 -3.5 L 229.48121832168204 -0.5 L 147.73084353584102 -0.5 Z"/><text text-anchor="middle" pointer-events="none" font-size="8px" fill="#000000" x="127.24060916084102" y="3" font-family="Helvetica Neue, Helvetica, Arial, sans-serif">cure_way</text></g><g class="relationship" transform="translate(-407.2821524577779 9.133618207344341) rotate(217.29149433224916)"><path class="b-outline" fill="#4C8EDA" stroke="none" d="M 25 0.5 L 103.80480906199956 0.5 L 103.80480906199956 -0.5 L 25 -0.5 Z M 144.78527781199955 0.5 L 223.59008687399913 0.5 L 223.59008687399913 3.5 L 230.59008687399913 0 L 223.59008687399913 -3.5 L 223.59008687399913 -0.5 L 144.78527781199955 -0.5 Z"/><text text-anchor="middle" pointer-events="none" font-size="8px" fill="#000000" x="124.29504343699956" y="3" transform="rotate(180 124.29504343699956 0)" font-family="Helvetica Neue, Helvetica, Arial, sans-serif">cure_way</text></g><g class="relationship" transform="translate(-459.66372801263276 -74.40167567763214) rotate(417.9098527636874)"><path class="b-outline" fill="#A5ABB6" stroke="none" d="M 25 0.5 L 25.753162479849742 0.5 L 25.753162479849742 -0.5 L 25 -0.5 Z M 65.84691247984975 0.5 L 66.60007495969948 0.5 L 66.60007495969948 3.5 L 73.60007495969948 0 L 66.60007495969948 -3.5 L 66.60007495969948 -0.5 L 65.84691247984975 -0.5 Z"/><text text-anchor="middle" pointer-events="none" font-size="8px" fill="#000000" x="45.80003747984974" y="3" font-family="Helvetica Neue, Helvetica, Arial, sans-serif">has_dis…</text></g><g class="relationship" transform="translate(-514.8712941859458 -152.77713490395953) rotate(416.3960980337188)"><path class="b-outline" fill="#A5ABB6" stroke="none" d="M 25 0.5 L 68.3043825696428 0.5 L 68.3043825696428 -0.5 L 25 -0.5 Z M 119.0934450696428 0.5 L 162.3978276392856 0.5 L 162.3978276392856 3.5 L 169.3978276392856 0 L 162.3978276392856 -3.5 L 162.3978276392856 -0.5 L 119.0934450696428 -0.5 Z"/><text text-anchor="middle" pointer-events="none" font-size="8px" fill="#000000" x="93.6989138196428" y="3" font-family="Helvetica Neue, Helvetica, Arial, sans-serif">has_disease</text></g><g class="relationship" transform="translate(-651.3432188565545 -57.78290548038888) rotate(375.3325323468003)"><path class="b-outline" fill="#A5ABB6" stroke="none" d="M 25 0.5 L 97.63967882197913 0.5 L 97.63967882197913 -0.5 L 25 -0.5 Z M 148.42874132197915 0.5 L 221.06842014395826 0.5 L 221.06842014395826 3.5 L 228.06842014395826 0 L 221.06842014395826 -3.5 L 221.06842014395826 -0.5 L 148.42874132197915 -0.5 Z"/><text text-anchor="middle" pointer-events="none" font-size="8px" fill="#000000" x="123.03421007197913" y="3" font-family="Helvetica Neue, Helvetica, Arial, sans-serif">has_disease</text></g><g class="relationship" transform="translate(-638.2190452845529 110.40356082016866) rotate(336.3216927446075)"><path class="b-outline" fill="#A5ABB6" stroke="none" d="M 25 0.5 L 97.18822901611458 0.5 L 97.18822901611458 -0.5 L 25 -0.5 Z M 147.97729151611458 0.5 L 220.16552053222915 0.5 L 220.16552053222915 3.5 L 227.16552053222915 0 L 220.16552053222915 -3.5 L 220.16552053222915 -0.5 L 147.97729151611458 -0.5 Z"/><text text-anchor="middle" pointer-events="none" font-size="8px" fill="#000000" x="122.58276026611458" y="3" font-family="Helvetica Neue, Helvetica, Arial, sans-serif">has_disease</text></g><g class="relationship" transform="translate(-345.3167474076171 83.8170740814757) rotate(230.31725967904362)"><path class="b-outline" fill="#A5ABB6" stroke="none" d="M 25 0.5 L 26.826151833668412 0.5 L 26.826151833668412 -0.5 L 25 -0.5 Z M 63.21677683366841 0.5 L 65.04292866733682 0.5 L 65.04292866733682 3.5 L 72.04292866733682 0 L 65.04292866733682 -3.5 L 65.04292866733682 -0.5 L 63.21677683366841 -0.5 Z"/><text text-anchor="middle" pointer-events="none" font-size="8px" fill="#000000" x="45.02146433366841" y="3" transform="rotate(180 45.02146433366841 0)" font-family="Helvetica Neue, Helvetica, Arial, sans-serif">has_di…</text></g><g class="relationship" transform="translate(-447.85315383803214 96.24951847604785) rotate(294.97200440866624)"><path class="b-outline" fill="#A5ABB6" stroke="none" d="M 25 0.5 L 26.354625670156082 0.5 L 26.354625670156082 -0.5 L 25 -0.5 Z M 62.74525067015608 0.5 L 64.09987634031216 0.5 L 64.09987634031216 3.5 L 71.09987634031216 0 L 64.09987634031216 -3.5 L 64.09987634031216 -0.5 L 62.74525067015608 -0.5 Z"/><text text-anchor="middle" pointer-events="none" font-size="8px" fill="#000000" x="44.54993817015608" y="3" font-family="Helvetica Neue, Helvetica, Arial, sans-serif">has_di…</text></g><g class="relationship" transform="translate(-407.2821524577779 9.133618207344341) rotate(348.75623001441795)"><path class="b-outline" fill="#D9C8AE" stroke="none" d="M 25 0.5 L 27.078804684009405 0.5 L 27.078804684009405 -0.5 L 25 -0.5 Z M 70.78583593400941 0.5 L 72.86464061801881 0.5 L 72.86464061801881 3.5 L 79.86464061801881 0 L 72.86464061801881 -3.5 L 72.86464061801881 -0.5 L 70.78583593400941 -0.5 Z"/><text text-anchor="middle" pointer-events="none" font-size="8px" fill="#000000" x="48.932320309009405" y="3" font-family="Helvetica Neue, Helvetica, Arial, sans-serif">has_video</text></g><g class="relationship" transform="translate(-407.2821524577779 9.133618207344341) rotate(380.29265282858273)"><path class="b-outline" fill="#57C7E3" stroke="none" d="M 25 0.5 L 57.28292120322955 0.5 L 57.28292120322955 -0.5 L 25 -0.5 Z M 106.56026495322955 0.5 L 138.8431861564591 0.5 L 138.8431861564591 3.5 L 145.8431861564591 0 L 138.8431861564591 -3.5 L 138.8431861564591 -0.5 L 106.56026495322955 -0.5 Z"/><text text-anchor="middle" pointer-events="none" font-size="8px" fill="#000000" x="81.92159307822955" y="3" font-family="Helvetica Neue, Helvetica, Arial, sans-serif">has_picture</text></g></g><g class="layer nodes"><g class="node" aria-label="graph-node46117" transform="translate(-82.3914358084333,190.1433353474215)" style="touch-action: none; -webkit-tap-highlight-color: rgba(0, 0, 0, 0);"><circle class="b-outline" cx="0" cy="0" r="25" fill="#C990C0" stroke="#b261a5" stroke-width="2px"/><text class="caption" text-anchor="middle" pointer-events="none" x="0" y="5" font-size="10px" fill="#FFFFFF" font-family="Helvetica Neue, Helvetica, Arial, sans-serif"> 焦虑：与…</text></g><g class="node" aria-label="graph-node46118" transform="translate(182.95165537425913,63.48066079033255)" style="touch-action: none; -webkit-tap-highlight-color: rgba(0, 0, 0, 0);"><circle class="b-outline" cx="0" cy="0" r="25" fill="#C990C0" stroke="#b261a5" stroke-width="2px"/><text class="caption" text-anchor="middle" pointer-events="none" x="0" y="5" font-size="10px" fill="#FFFFFF" font-family="Helvetica Neue, Helvetica, Arial, sans-serif"> 有跌倒的…</text></g><g class="node" aria-label="graph-node46119" transform="translate(-53.745558159597806,-126.91430323937783)" style="touch-action: none; -webkit-tap-highlight-color: rgba(0, 0, 0, 0);"><circle class="b-outline" cx="0" cy="0" r="25" fill="#C990C0" stroke="#b261a5" stroke-width="2px"/><text class="caption" text-anchor="middle" pointer-events="none" x="0" y="5" font-size="10px" fill="#FFFFFF" font-family="Helvetica Neue, Helvetica, Arial, sans-serif"> 有感染的…</text></g><g class="node" aria-label="graph-node46120" transform="translate(-207.11646424732578,-22.056300178824237)" style="touch-action: none; -webkit-tap-highlight-color: rgba(0, 0, 0, 0);"><circle class="b-outline" cx="0" cy="0" r="25" fill="#C990C0" stroke="#b261a5" stroke-width="2px"/><text class="caption" text-anchor="middle" pointer-events="none" x="0" y="5" font-size="10px" fill="#FFFFFF" font-family="Helvetica Neue, Helvetica, Arial, sans-serif"> 知识缺乏…</text></g><g class="node" aria-label="graph-node45932" transform="translate(7.183633956976088,-5.573755326350437)" style="touch-action: none; -webkit-tap-highlight-color: rgba(0, 0, 0, 0);"><circle class="b-outline" cx="0" cy="0" r="25" fill="#8DCC93" stroke="#5db665" stroke-width="2px"/><text class="caption" text-anchor="middle" pointer-events="none" x="0" y="5" font-size="10px" fill="#2A2C34" font-family="Helvetica Neue, Helvetica, Arial, sans-serif"> 患者01</text></g><g class="node" aria-label="graph-node46124" transform="translate(-262.99075504671293,-96.53197362648878)" style="touch-action: none; -webkit-tap-highlight-color: rgba(0, 0, 0, 0);"><circle class="b-outline" cx="0" cy="0" r="25" fill="#604A0E" stroke="#423204" stroke-width="2px"/><text class="caption" text-anchor="middle" pointer-events="none" x="0" y="5" font-size="10px" fill="#FFFFFF" font-family="Helvetica Neue, Helvetica, Arial, sans-serif"> ①一对一…</text></g><g class="node" aria-label="graph-node5896" transform="translate(-407.2821524577779,9.133618207344341)" style="touch-action: none; -webkit-tap-highlight-color: rgba(0, 0, 0, 0);"><circle class="b-outline" cx="0" cy="0" r="25" fill="#4C8EDA" stroke="#2870c2" stroke-width="2px"/><text class="caption" text-anchor="middle" pointer-events="none" x="0" y="5" font-size="10px" fill="#FFFFFF" font-family="Helvetica Neue, Helvetica, Arial, sans-serif"> 眼睑基底…</text></g><g class="node" aria-label="graph-node45994" transform="translate(110.7760230251145,219.99693950782824)" style="touch-action: none; -webkit-tap-highlight-color: rgba(0, 0, 0, 0);"><circle class="b-outline" cx="0" cy="0" r="25" fill="#FFC454" stroke="#d7a013" stroke-width="2px"/><text class="caption" text-anchor="middle" pointer-events="none" x="0" y="5" font-size="10px" fill="#2A2C34" font-family="Helvetica Neue, Helvetica, Arial, sans-serif"> 血压-14…</text></g><g class="node" aria-label="graph-node46000" transform="translate(72.07120743564413,-69.00262755884116)" style="touch-action: none; -webkit-tap-highlight-color: rgba(0, 0, 0, 0);"><circle class="b-outline" cx="0" cy="0" r="25" fill="#FFC454" stroke="#d7a013" stroke-width="2px"/><text class="caption" text-anchor="middle" pointer-events="none" x="0" y="5" font-size="10px" fill="#2A2C34" font-family="Helvetica Neue, Helvetica, Arial, sans-serif"> 
主诉-发…</text></g><g class="node" aria-label="graph-node46001" transform="translate(188.28282612448498,158.575909804654)" style="touch-action: none; -webkit-tap-highlight-color: rgba(0, 0, 0, 0);"><circle class="b-outline" cx="0" cy="0" r="25" fill="#FFC454" stroke="#d7a013" stroke-width="2px"/><text class="caption" text-anchor="middle" pointer-events="none" x="0" y="5" font-size="10px" fill="#2A2C34" font-family="Helvetica Neue, Helvetica, Arial, sans-serif"> 辅助检查…</text></g><g class="node" aria-label="graph-node46012" transform="translate(96.97546284542632,28.984074315076406)" style="touch-action: none; -webkit-tap-highlight-color: rgba(0, 0, 0, 0);"><circle class="b-outline" cx="0" cy="0" r="25" fill="#FFC454" stroke="#d7a013" stroke-width="2px"/><text class="caption" text-anchor="middle" pointer-events="none" x="0" y="5" font-size="10px" fill="#2A2C34" font-family="Helvetica Neue, Helvetica, Arial, sans-serif"> 呼吸-20…</text></g><g class="node" aria-label="graph-node46032" transform="translate(42.33854372246802,-163.56455557487806)" style="touch-action: none; -webkit-tap-highlight-color: rgba(0, 0, 0, 0);"><circle class="b-outline" cx="0" cy="0" r="25" fill="#FFC454" stroke="#d7a013" stroke-width="2px"/><text class="caption" text-anchor="middle" pointer-events="none" x="0" y="5" font-size="10px" fill="#2A2C34" font-family="Helvetica Neue, Helvetica, Arial, sans-serif"> 治疗方案…</text></g><g class="node" aria-label="graph-node46045" transform="translate(145.47049009939403,-123.19758729638095)" style="touch-action: none; -webkit-tap-highlight-color: rgba(0, 0, 0, 0);"><circle class="b-outline" cx="0" cy="0" r="25" fill="#FFC454" stroke="#d7a013" stroke-width="2px"/><text class="caption" text-anchor="middle" pointer-events="none" x="0" y="5" font-size="10px" fill="#2A2C34" font-family="Helvetica Neue, Helvetica, Arial, sans-serif"> 治疗经过…</text></g><g class="node" aria-label="graph-node46047" transform="translate(257.05778225235633,-0.5700280605533152)" style="touch-action: none; -webkit-tap-highlight-color: rgba(0, 0, 0, 0);"><circle class="b-outline" cx="0" cy="0" r="25" fill="#FFC454" stroke="#d7a013" stroke-width="2px"/><text class="caption" text-anchor="middle" pointer-events="none" x="0" y="5" font-size="10px" fill="#2A2C34" font-family="Helvetica Neue, Helvetica, Arial, sans-serif"> 现病史-…</text></g><g class="node" aria-label="graph-node46048" transform="translate(127.54003441418139,-214.35292668042487)" style="touch-action: none; -webkit-tap-highlight-color: rgba(0, 0, 0, 0);"><circle class="b-outline" cx="0" cy="0" r="25" fill="#FFC454" stroke="#d7a013" stroke-width="2px"/><text class="caption" text-anchor="middle" pointer-events="none" x="0" y="5" font-size="10px" fill="#2A2C34" font-family="Helvetica Neue, Helvetica, Arial, sans-serif"> 专科检查…</text></g><g class="node" aria-label="graph-node46064" transform="translate(46.19348126638982,-263.4537914816144)" style="touch-action: none; -webkit-tap-highlight-color: rgba(0, 0, 0, 0);"><circle class="b-outline" cx="0" cy="0" r="25" fill="#FFC454" stroke="#d7a013" stroke-width="2px"/><text class="caption" text-anchor="middle" pointer-events="none" x="0" y="5" font-size="10px" fill="#2A2C34" font-family="Helvetica Neue, Helvetica, Arial, sans-serif"> 体温-36.…</text></g><g class="node" aria-label="graph-node46066" transform="translate(-140.25622309540478,-89.81852561845598)" style="touch-action: none; -webkit-tap-highlight-color: rgba(0, 0, 0, 0);"><circle class="b-outline" cx="0" cy="0" r="25" fill="#FFC454" stroke="#d7a013" stroke-width="2px"/><text class="caption" text-anchor="middle" pointer-events="none" x="0" y="5" font-size="10px" fill="#2A2C34" font-family="Helvetica Neue, Helvetica, Arial, sans-serif"> 入院诊断…</text></g><g class="node" aria-label="graph-node46087" transform="translate(217.93954774651596,-189.9229176831136)" style="touch-action: none; -webkit-tap-highlight-color: rgba(0, 0, 0, 0);"><circle class="b-outline" cx="0" cy="0" r="25" fill="#FFC454" stroke="#d7a013" stroke-width="2px"/><text class="caption" text-anchor="middle" pointer-events="none" x="0" y="5" font-size="10px" fill="#2A2C34" font-family="Helvetica Neue, Helvetica, Arial, sans-serif"> 既往史-…</text></g><g class="node" aria-label="graph-node46090" transform="translate(-110.1123744479642,-1.6475727142880259)" style="touch-action: none; -webkit-tap-highlight-color: rgba(0, 0, 0, 0);"><circle class="b-outline" cx="0" cy="0" r="25" fill="#FFC454" stroke="#d7a013" stroke-width="2px"/><text class="caption" text-anchor="middle" pointer-events="none" x="0" y="5" font-size="10px" fill="#2A2C34" font-family="Helvetica Neue, Helvetica, Arial, sans-serif"> 脉搏-71…</text></g><g class="node" aria-label="graph-node46110" transform="translate(-38.22810806970849,-219.81750121038715)" style="touch-action: none; -webkit-tap-highlight-color: rgba(0, 0, 0, 0);"><circle class="b-outline" cx="0" cy="0" r="25" fill="#569480" stroke="#447666" stroke-width="2px"/><text class="caption" text-anchor="middle" pointer-events="none" x="0" y="5" font-size="10px" fill="#FFFFFF" font-family="Helvetica Neue, Helvetica, Arial, sans-serif"> 营养状态…</text></g><g class="node" aria-label="graph-node46111" transform="translate(-96.36711843874514,97.36675328358623)" style="touch-action: none; -webkit-tap-highlight-color: rgba(0, 0, 0, 0);"><circle class="b-outline" cx="0" cy="0" r="25" fill="#569480" stroke="#447666" stroke-width="2px"/><text class="caption" text-anchor="middle" pointer-events="none" x="0" y="5" font-size="10px" fill="#FFFFFF" font-family="Helvetica Neue, Helvetica, Arial, sans-serif"> 自理能力…</text></g><g class="node" aria-label="graph-node46112" transform="translate(99.80687848248587,125.6649190592803)" style="touch-action: none; -webkit-tap-highlight-color: rgba(0, 0, 0, 0);"><circle class="b-outline" cx="0" cy="0" r="25" fill="#569480" stroke="#447666" stroke-width="2px"/><text class="caption" text-anchor="middle" pointer-events="none" x="0" y="5" font-size="10px" fill="#FFFFFF" font-family="Helvetica Neue, Helvetica, Arial, sans-serif"> 生命体征…</text></g><g class="node" aria-label="graph-node46113" transform="translate(1.4026903150702352,110.0924770009466)" style="touch-action: none; -webkit-tap-highlight-color: rgba(0, 0, 0, 0);"><circle class="b-outline" cx="0" cy="0" r="25" fill="#569480" stroke="#447666" stroke-width="2px"/><text class="caption" text-anchor="middle" pointer-events="none" x="0" y="5" font-size="10px" fill="#FFFFFF" font-family="Helvetica Neue, Helvetica, Arial, sans-serif"> 压疮风险…</text></g><g class="node" aria-label="graph-node46114" transform="translate(239.29276704815695,-94.98624591119261)" style="touch-action: none; -webkit-tap-highlight-color: rgba(0, 0, 0, 0);"><circle class="b-outline" cx="0" cy="0" r="25" fill="#569480" stroke="#447666" stroke-width="2px"/><text class="caption" text-anchor="middle" pointer-events="none" x="0" y="5" font-size="10px" fill="#FFFFFF" font-family="Helvetica Neue, Helvetica, Arial, sans-serif"> 心理健康…</text></g><g class="node" aria-label="graph-node46115" transform="translate(165.87844370892378,-32.586314822005406)" style="touch-action: none; -webkit-tap-highlight-color: rgba(0, 0, 0, 0);"><circle class="b-outline" cx="0" cy="0" r="25" fill="#569480" stroke="#447666" stroke-width="2px"/><text class="caption" text-anchor="middle" pointer-events="none" x="0" y="5" font-size="10px" fill="#FFFFFF" font-family="Helvetica Neue, Helvetica, Arial, sans-serif"> 外科VTE…</text></g><g class="node" aria-label="graph-node46116" transform="translate(14.491373606278596,205.12207283360317)" style="touch-action: none; -webkit-tap-highlight-color: rgba(0, 0, 0, 0);"><circle class="b-outline" cx="0" cy="0" r="25" fill="#569480" stroke="#447666" stroke-width="2px"/><text class="caption" text-anchor="middle" pointer-events="none" x="0" y="5" font-size="10px" fill="#FFFFFF" font-family="Helvetica Neue, Helvetica, Arial, sans-serif"> 跌倒风险…</text></g><g class="node" aria-label="graph-node46123" transform="translate(-125.81864441564798,-179.68644588165103)" style="touch-action: none; -webkit-tap-highlight-color: rgba(0, 0, 0, 0);"><circle class="b-outline" cx="0" cy="0" r="25" fill="#604A0E" stroke="#423204" stroke-width="2px"/><text class="caption" text-anchor="middle" pointer-events="none" x="0" y="5" font-size="10px" fill="#FFFFFF" font-family="Helvetica Neue, Helvetica, Arial, sans-serif"> ①术眼加…</text></g><g class="node" aria-label="graph-node46122" transform="translate(264.87840417775027,89.27704938247405)" style="touch-action: none; -webkit-tap-highlight-color: rgba(0, 0, 0, 0);"><circle class="b-outline" cx="0" cy="0" r="25" fill="#604A0E" stroke="#423204" stroke-width="2px"/><text class="caption" text-anchor="middle" pointer-events="none" x="0" y="5" font-size="10px" fill="#FFFFFF" font-family="Helvetica Neue, Helvetica, Arial, sans-serif"> ①评估患…</text></g><g class="node" aria-label="graph-node46121" transform="translate(-136.07446998962718,230.63992869007848)" style="touch-action: none; -webkit-tap-highlight-color: rgba(0, 0, 0, 0);"><circle class="b-outline" cx="0" cy="0" r="25" fill="#604A0E" stroke="#423204" stroke-width="2px"/><text class="caption" text-anchor="middle" pointer-events="none" x="0" y="0" font-size="10px" fill="#FFFFFF" font-family="Helvetica Neue, Helvetica, Arial, sans-serif"> </text><text class="caption" text-anchor="middle" pointer-events="none" x="0" y="10" font-size="10px" fill="#FFFFFF" font-family="Helvetica Neue, Helvetica, Arial, sans-serif"> ①给予…</text></g><g class="node" aria-label="graph-node9765" transform="translate(-388.8310780302678,170.97654519012713)" style="touch-action: none; -webkit-tap-highlight-color: rgba(0, 0, 0, 0);"><circle class="b-outline" cx="0" cy="0" r="25" fill="#DA7194" stroke="#cc3c6c" stroke-width="2px"/><text class="caption" text-anchor="middle" pointer-events="none" x="0" y="5" font-size="10px" fill="#FFFFFF" font-family="Helvetica Neue, Helvetica, Arial, sans-serif"> 红霉素…</text></g><g class="node" aria-label="graph-node10045" transform="translate(-501.67126262452626,14.471570255351867)" style="touch-action: none; -webkit-tap-highlight-color: rgba(0, 0, 0, 0);"><circle class="b-outline" cx="0" cy="0" r="25" fill="#DA7194" stroke="#cc3c6c" stroke-width="2px"/><text class="caption" text-anchor="middle" pointer-events="none" x="0" y="5" font-size="10px" fill="#FFFFFF" font-family="Helvetica Neue, Helvetica, Arial, sans-serif"> 妥布霉素…</text></g><g class="node" aria-label="graph-node10802" transform="translate(-597.8966087021253,22.780776678920756)" style="touch-action: none; -webkit-tap-highlight-color: rgba(0, 0, 0, 0);"><circle class="b-outline" cx="0" cy="0" r="25" fill="#DA7194" stroke="#cc3c6c" stroke-width="2px"/><text class="caption" text-anchor="middle" pointer-events="none" x="0" y="5" font-size="10px" fill="#FFFFFF" font-family="Helvetica Neue, Helvetica, Arial, sans-serif"> 盐酸洛美…</text></g><g class="node" aria-label="graph-node12322" transform="translate(-485.7306555539874,183.3048047770605)" style="touch-action: none; -webkit-tap-highlight-color: rgba(0, 0, 0, 0);"><circle class="b-outline" cx="0" cy="0" r="25" fill="#DA7194" stroke="#cc3c6c" stroke-width="2px"/><text class="caption" text-anchor="middle" pointer-events="none" x="0" y="5" font-size="10px" fill="#FFFFFF" font-family="Helvetica Neue, Helvetica, Arial, sans-serif"> 妥布霉素…</text></g><g class="node" aria-label="graph-node17660" transform="translate(-332.98956215166106,248.58295400935876)" style="touch-action: none; -webkit-tap-highlight-color: rgba(0, 0, 0, 0);"><circle class="b-outline" cx="0" cy="0" r="25" fill="#4C8EDA" stroke="#2870c2" stroke-width="2px"/><text class="caption" text-anchor="middle" pointer-events="none" x="0" y="5" font-size="10px" fill="#FFFFFF" font-family="Helvetica Neue, Helvetica, Arial, sans-serif"> 皮肤涂片…</text></g><g class="node" aria-label="graph-node18652" transform="translate(-542.9110635094446,101.39555451406561)" style="touch-action: none; -webkit-tap-highlight-color: rgba(0, 0, 0, 0);"><circle class="b-outline" cx="0" cy="0" r="25" fill="#4C8EDA" stroke="#2870c2" stroke-width="2px"/><text class="caption" text-anchor="middle" pointer-events="none" x="0" y="5" font-size="10px" fill="#FFFFFF" font-family="Helvetica Neue, Helvetica, Arial, sans-serif"> 尿常规</text></g><g class="node" aria-label="graph-node19081" transform="translate(-429.63299680854993,258.36898519894095)" style="touch-action: none; -webkit-tap-highlight-color: rgba(0, 0, 0, 0);"><circle class="b-outline" cx="0" cy="0" r="25" fill="#4C8EDA" stroke="#2870c2" stroke-width="2px"/><text class="caption" text-anchor="middle" pointer-events="none" x="0" y="5" font-size="10px" fill="#FFFFFF" font-family="Helvetica Neue, Helvetica, Arial, sans-serif"> 血常规</text></g><g class="node" aria-label="graph-node19180" transform="translate(-420.07499502186255,-163.6557328844925)" style="touch-action: none; -webkit-tap-highlight-color: rgba(0, 0, 0, 0);"><circle class="b-outline" cx="0" cy="0" r="25" fill="#4C8EDA" stroke="#2870c2" stroke-width="2px"/><text class="caption" text-anchor="middle" pointer-events="none" x="0" y="5" font-size="10px" fill="#FFFFFF" font-family="Helvetica Neue, Helvetica, Arial, sans-serif"> 便常规</text></g><g class="node" aria-label="graph-node19884" transform="translate(-195.838798571991,147.92709609890503)" style="touch-action: none; -webkit-tap-highlight-color: rgba(0, 0, 0, 0);"><circle class="b-outline" cx="0" cy="0" r="25" fill="#4C8EDA" stroke="#2870c2" stroke-width="2px"/><text class="caption" text-anchor="middle" pointer-events="none" x="0" y="5" font-size="10px" fill="#FFFFFF" font-family="Helvetica Neue, Helvetica, Arial, sans-serif"> CT检查</text></g><g class="node" aria-label="graph-node20962" transform="translate(-555.8343793208954,-62.65047111305786)" style="touch-action: none; -webkit-tap-highlight-color: rgba(0, 0, 0, 0);"><circle class="b-outline" cx="0" cy="0" r="25" fill="#D9C8AE" stroke="#c0a378" stroke-width="2px"/><text class="caption" text-anchor="middle" pointer-events="none" x="0" y="5" font-size="10px" fill="#2A2C34" font-family="Helvetica Neue, Helvetica, Arial, sans-serif"> 眼科</text></g><g class="node" aria-label="graph-node38982" transform="translate(-477.82865209922187,-240.09192095791303)" style="touch-action: none; -webkit-tap-highlight-color: rgba(0, 0, 0, 0);"><circle class="b-outline" cx="0" cy="0" r="25" fill="#D9C8AE" stroke="#c0a378" stroke-width="2px"/><text class="caption" text-anchor="middle" pointer-events="none" x="0" y="5" font-size="10px" fill="#2A2C34" font-family="Helvetica Neue, Helvetica, Arial, sans-serif"> 睑结膜泪…</text></g><g class="node" aria-label="graph-node39305" transform="translate(-581.3346608670977,190.33035460796498)" style="touch-action: none; -webkit-tap-highlight-color: rgba(0, 0, 0, 0);"><circle class="b-outline" cx="0" cy="0" r="25" fill="#D9C8AE" stroke="#c0a378" stroke-width="2px"/><text class="caption" text-anchor="middle" pointer-events="none" x="0" y="5" font-size="10px" fill="#2A2C34" font-family="Helvetica Neue, Helvetica, Arial, sans-serif"> 珍珠丘疹</text></g><g class="node" aria-label="graph-node40741" transform="translate(-361.75220524568675,-90.8396695712573)" style="touch-action: none; -webkit-tap-highlight-color: rgba(0, 0, 0, 0);"><circle class="b-outline" cx="0" cy="0" r="25" fill="#D9C8AE" stroke="#c0a378" stroke-width="2px"/><text class="caption" text-anchor="middle" pointer-events="none" x="0" y="5" font-size="10px" fill="#2A2C34" font-family="Helvetica Neue, Helvetica, Arial, sans-serif"> 结节</text></g><g class="node" aria-label="graph-node43726" transform="translate(-321.2113937550168,-175.52061197480046)" style="touch-action: none; -webkit-tap-highlight-color: rgba(0, 0, 0, 0);"><circle class="b-outline" cx="0" cy="0" r="25" fill="#D9C8AE" stroke="#c0a378" stroke-width="2px"/><text class="caption" text-anchor="middle" pointer-events="none" x="0" y="5" font-size="10px" fill="#2A2C34" font-family="Helvetica Neue, Helvetica, Arial, sans-serif"> 结痂</text></g><g class="node" aria-label="graph-node44289" transform="translate(-291.99501005186477,163.68978472014712)" style="touch-action: none; -webkit-tap-highlight-color: rgba(0, 0, 0, 0);"><circle class="b-outline" cx="0" cy="0" r="25" fill="#F16667" stroke="#eb2728" stroke-width="2px"/><text class="caption" text-anchor="middle" pointer-events="none" x="0" y="5" font-size="10px" fill="#FFFFFF" font-family="Helvetica Neue, Helvetica, Arial, sans-serif"> 药物治疗</text></g><g class="node" aria-label="graph-node44557" transform="translate(-382.63254892584183,-251.18315916343806)" style="touch-action: none; -webkit-tap-highlight-color: rgba(0, 0, 0, 0);"><circle class="b-outline" cx="0" cy="0" r="25" fill="#F16667" stroke="#eb2728" stroke-width="2px"/><text class="caption" text-anchor="middle" pointer-events="none" x="0" y="5" font-size="10px" fill="#FFFFFF" font-family="Helvetica Neue, Helvetica, Arial, sans-serif"> 支持性…</text></g><g class="node" aria-label="graph-node44652" transform="translate(-610.6202792134561,-145.72082543490365)" style="touch-action: none; -webkit-tap-highlight-color: rgba(0, 0, 0, 0);"><circle class="b-outline" cx="0" cy="0" r="25" fill="#F16667" stroke="#eb2728" stroke-width="2px"/><text class="caption" text-anchor="middle" pointer-events="none" x="0" y="5" font-size="10px" fill="#FFFFFF" font-family="Helvetica Neue, Helvetica, Arial, sans-serif"> 手术治疗</text></g><g class="node" aria-label="graph-node45886" transform="translate(-459.66372801263276,-74.40167567763214)" style="touch-action: none; -webkit-tap-highlight-color: rgba(0, 0, 0, 0);"><circle class="b-outline" cx="0" cy="0" r="25" fill="#8DCC93" stroke="#5db665" stroke-width="2px"/><text class="caption" text-anchor="middle" pointer-events="none" x="0" y="5" font-size="10px" fill="#2A2C34" font-family="Helvetica Neue, Helvetica, Arial, sans-serif"> 患者91</text></g><g class="node" aria-label="graph-node45899" transform="translate(-514.8712941859458,-152.77713490395953)" style="touch-action: none; -webkit-tap-highlight-color: rgba(0, 0, 0, 0);"><circle class="b-outline" cx="0" cy="0" r="25" fill="#8DCC93" stroke="#5db665" stroke-width="2px"/><text class="caption" text-anchor="middle" pointer-events="none" x="0" y="5" font-size="10px" fill="#2A2C34" font-family="Helvetica Neue, Helvetica, Arial, sans-serif"> 患者46</text></g><g class="node" aria-label="graph-node45903" transform="translate(-651.3432188565545,-57.78290548038888)" style="touch-action: none; -webkit-tap-highlight-color: rgba(0, 0, 0, 0);"><circle class="b-outline" cx="0" cy="0" r="25" fill="#8DCC93" stroke="#5db665" stroke-width="2px"/><text class="caption" text-anchor="middle" pointer-events="none" x="0" y="5" font-size="10px" fill="#2A2C34" font-family="Helvetica Neue, Helvetica, Arial, sans-serif"> 患者31</text></g><g class="node" aria-label="graph-node45917" transform="translate(-638.2190452845529,110.40356082016866)" style="touch-action: none; -webkit-tap-highlight-color: rgba(0, 0, 0, 0);"><circle class="b-outline" cx="0" cy="0" r="25" fill="#8DCC93" stroke="#5db665" stroke-width="2px"/><text class="caption" text-anchor="middle" pointer-events="none" x="0" y="5" font-size="10px" fill="#2A2C34" font-family="Helvetica Neue, Helvetica, Arial, sans-serif"> 患者61</text></g><g class="node" aria-label="graph-node45923" transform="translate(-345.3167474076171,83.8170740814757)" style="touch-action: none; -webkit-tap-highlight-color: rgba(0, 0, 0, 0);"><circle class="b-outline" cx="0" cy="0" r="25" fill="#8DCC93" stroke="#5db665" stroke-width="2px"/><text class="caption" text-anchor="middle" pointer-events="none" x="0" y="5" font-size="10px" fill="#2A2C34" font-family="Helvetica Neue, Helvetica, Arial, sans-serif"> 患者16</text></g><g class="node" aria-label="graph-node45940" transform="translate(-447.85315383803214,96.24951847604785)" style="touch-action: none; -webkit-tap-highlight-color: rgba(0, 0, 0, 0);"><circle class="b-outline" cx="0" cy="0" r="25" fill="#8DCC93" stroke="#5db665" stroke-width="2px"/><text class="caption" text-anchor="middle" pointer-events="none" x="0" y="5" font-size="10px" fill="#2A2C34" font-family="Helvetica Neue, Helvetica, Arial, sans-serif"> 患者76</text></g><g class="node" aria-label="graph-node61185" transform="translate(-304.4302326189653,-11.313274892016983)" style="touch-action: none; -webkit-tap-highlight-color: rgba(0, 0, 0, 0);"><circle class="b-outline" cx="0" cy="0" r="25" fill="#57C7E3" stroke="#23b3d7" stroke-width="2px"/><text class="caption" text-anchor="middle" pointer-events="none" x="0" y="5" font-size="10px" fill="#2A2C34" font-family="Helvetica Neue, Helvetica, Arial, sans-serif"> 视频5534</text></g><g class="node" aria-label="graph-node64961" transform="translate(-247.042619390731,68.38466291159683)" style="touch-action: none; -webkit-tap-highlight-color: rgba(0, 0, 0, 0);"><circle class="b-outline" cx="0" cy="0" r="25" fill="#F79767" stroke="#f36924" stroke-width="2px"/><text class="caption" text-anchor="middle" pointer-events="none" x="0" y="5" font-size="10px" fill="#FFFFFF" font-family="Helvetica Neue, Helvetica, Arial, sans-serif"> 图像5534</text></g></g></svg>