<svg xmlns="http://www.w3.org/2000/svg" width="854.7073364257812" height="512.03515625" viewBox="-606.1785888671875 -234.37034606933594 854.7073364257812 512.03515625"><title>Neo4j Graph Visualization</title><desc>Created using Neo4j (http://www.neo4j.com/)</desc><g class="layer relationships"><g class="relationship" transform="translate(-8.571426391601562 53.02061657678951) rotate(184.40991780289903)"><path class="b-outline" fill="#A5ABB6" stroke="none" d="M 25 0.5 L 135.26551455386303 0.5 L 135.26551455386303 -0.5 L 25 -0.5 Z M 186.05457705386303 0.5 L 296.32009160772606 0.5 L 296.32009160772606 3.5 L 303.32009160772606 0 L 296.32009160772606 -3.5 L 296.32009160772606 -0.5 L 186.05457705386303 -0.5 Z"/><text text-anchor="middle" pointer-events="none" font-size="8px" fill="#000000" x="160.66004580386303" y="3" transform="rotate(180 160.66004580386303 0)" font-family="Helvetica Neue, Helvetica, Arial, sans-serif">has_disease</text></g><g class="relationship" transform="translate(-8.571426391601562 53.02061657678951) rotate(474.11531367388307)"><path class="b-outline" fill="#A5ABB6" stroke="none" d="M 25 0.5 L 48.32924738133299 0.5 L 48.32924738133299 -0.5 L 25 -0.5 Z M 98.29018488133299 0.5 L 121.61943226266598 0.5 L 121.61943226266598 3.5 L 128.61943226266598 0 L 121.61943226266598 -3.5 L 121.61943226266598 -0.5 L 98.29018488133299 -0.5 Z"/><text text-anchor="middle" pointer-events="none" font-size="8px" fill="#000000" x="73.30971613133299" y="3" transform="rotate(180 73.30971613133299 0)" font-family="Helvetica Neue, Helvetica, Arial, sans-serif">has_proffile</text></g><g class="relationship" transform="translate(-8.571426391601562 53.02061657678951) rotate(440.80980872626924)"><path class="b-outline" fill="#A5ABB6" stroke="none" d="M 25 0.5 L 60.83070455813545 0.5 L 60.83070455813545 -0.5 L 25 -0.5 Z M 110.79164205813545 0.5 L 146.6223466162709 0.5 L 146.6223466162709 3.5 L 153.6223466162709 0 L 146.6223466162709 -3.5 L 146.6223466162709 -0.5 L 110.79164205813545 -0.5 Z"/><text text-anchor="middle" pointer-events="none" font-size="8px" fill="#000000" x="85.81117330813545" y="3" font-family="Helvetica Neue, Helvetica, Arial, sans-serif">has_proffile</text></g><g class="relationship" transform="translate(-8.571426391601562 53.02061657678951) rotate(409.2223746681233)"><path class="b-outline" fill="#A5ABB6" stroke="none" d="M 25 0.5 L 31.499319143433965 0.5 L 31.499319143433965 -0.5 L 25 -0.5 Z M 81.46025664343396 0.5 L 87.95957578686793 0.5 L 87.95957578686793 3.5 L 94.95957578686793 0 L 87.95957578686793 -3.5 L 87.95957578686793 -0.5 L 81.46025664343396 -0.5 Z"/><text text-anchor="middle" pointer-events="none" font-size="8px" fill="#000000" x="56.479787893433965" y="3" font-family="Helvetica Neue, Helvetica, Arial, sans-serif">has_proffile</text></g><g class="relationship" transform="translate(-8.571426391601562 53.02061657678951) rotate(361.841189918488)"><path class="b-outline" fill="#A5ABB6" stroke="none" d="M 25 0.5 L 36.74772524458771 0.5 L 36.74772524458771 -0.5 L 25 -0.5 Z M 86.70866274458771 0.5 L 98.45638798917543 0.5 L 98.45638798917543 3.5 L 105.45638798917543 0 L 98.45638798917543 -3.5 L 98.45638798917543 -0.5 L 86.70866274458771 -0.5 Z"/><text text-anchor="middle" pointer-events="none" font-size="8px" fill="#000000" x="61.72819399458771" y="3" font-family="Helvetica Neue, Helvetica, Arial, sans-serif">has_proffile</text></g><g class="relationship" transform="translate(-8.571426391601562 53.02061657678951) rotate(387.36074109866286)"><path class="b-outline" fill="#A5ABB6" stroke="none" d="M 25 0.5 L 70.64502470512339 0.5 L 70.64502470512339 -0.5 L 25 -0.5 Z M 120.60596220512339 0.5 L 166.25098691024678 0.5 L 166.25098691024678 3.5 L 173.25098691024678 0 L 166.25098691024678 -3.5 L 166.25098691024678 -0.5 L 120.60596220512339 -0.5 Z"/><text text-anchor="middle" pointer-events="none" font-size="8px" fill="#000000" x="95.62549345512339" y="3" font-family="Helvetica Neue, Helvetica, Arial, sans-serif">has_proffile</text></g><g class="relationship" transform="translate(-8.571426391601562 53.02061657678951) rotate(362.47310637841736)"><path class="b-outline" fill="#A5ABB6" stroke="none" d="M 25 0.5 L 85.67590627055722 0.5 L 85.67590627055722 -0.5 L 25 -0.5 Z M 135.63684377055722 0.5 L 196.31275004111444 0.5 L 196.31275004111444 3.5 L 203.31275004111444 0 L 196.31275004111444 -3.5 L 196.31275004111444 -0.5 L 135.63684377055722 -0.5 Z"/><text text-anchor="middle" pointer-events="none" font-size="8px" fill="#000000" x="110.65637502055722" y="3" font-family="Helvetica Neue, Helvetica, Arial, sans-serif">has_proffile</text></g><g class="relationship" transform="translate(-8.571426391601562 53.02061657678951) rotate(337.45527171102935)"><path class="b-outline" fill="#A5ABB6" stroke="none" d="M 25 0.5 L 72.19423909909966 0.5 L 72.19423909909966 -0.5 L 25 -0.5 Z M 122.15517659909966 0.5 L 169.34941569819932 0.5 L 169.34941569819932 3.5 L 176.34941569819932 0 L 169.34941569819932 -3.5 L 169.34941569819932 -0.5 L 122.15517659909966 -0.5 Z"/><text text-anchor="middle" pointer-events="none" font-size="8px" fill="#000000" x="97.17470784909966" y="3" font-family="Helvetica Neue, Helvetica, Arial, sans-serif">has_proffile</text></g><g class="relationship" transform="translate(-8.571426391601562 53.02061657678951) rotate(315.5821070913496)"><path class="b-outline" fill="#A5ABB6" stroke="none" d="M 25 0.5 L 33.27714760943219 0.5 L 33.27714760943219 -0.5 L 25 -0.5 Z M 83.23808510943219 0.5 L 91.51523271886438 0.5 L 91.51523271886438 3.5 L 98.51523271886438 0 L 91.51523271886438 -3.5 L 91.51523271886438 -0.5 L 83.23808510943219 -0.5 Z"/><text text-anchor="middle" pointer-events="none" font-size="8px" fill="#000000" x="58.25761635943219" y="3" font-family="Helvetica Neue, Helvetica, Arial, sans-serif">has_proffile</text></g><g class="relationship" transform="translate(-8.571426391601562 53.02061657678951) rotate(310.7017687875999)"><path class="b-outline" fill="#A5ABB6" stroke="none" d="M 25 0.5 L 81.15780082334881 0.5 L 81.15780082334881 -0.5 L 25 -0.5 Z M 131.1187383233488 0.5 L 187.27653914669762 0.5 L 187.27653914669762 3.5 L 194.27653914669762 0 L 187.27653914669762 -3.5 L 187.27653914669762 -0.5 L 131.1187383233488 -0.5 Z"/><text text-anchor="middle" pointer-events="none" font-size="8px" fill="#000000" x="106.13826957334881" y="3" font-family="Helvetica Neue, Helvetica, Arial, sans-serif">has_proffile</text></g><g class="relationship" transform="translate(-8.571426391601562 53.02061657678951) rotate(251.72779269187492)"><path class="b-outline" fill="#A5ABB6" stroke="none" d="M 25 0.5 L 46.76858023193196 0.5 L 46.76858023193196 -0.5 L 25 -0.5 Z M 96.72951773193196 0.5 L 118.49809796386393 0.5 L 118.49809796386393 3.5 L 125.49809796386393 0 L 118.49809796386393 -3.5 L 118.49809796386393 -0.5 L 96.72951773193196 -0.5 Z"/><text text-anchor="middle" pointer-events="none" font-size="8px" fill="#000000" x="71.74904898193196" y="3" transform="rotate(180 71.74904898193196 0)" font-family="Helvetica Neue, Helvetica, Arial, sans-serif">has_proffile</text></g><g class="relationship" transform="translate(-8.571426391601562 53.02061657678951) rotate(284.6239140100009)"><path class="b-outline" fill="#A5ABB6" stroke="none" d="M 25 0.5 L 62.656542622560224 0.5 L 62.656542622560224 -0.5 L 25 -0.5 Z M 112.61748012256022 0.5 L 150.27402274512045 0.5 L 150.27402274512045 3.5 L 157.27402274512045 0 L 150.27402274512045 -3.5 L 150.27402274512045 -0.5 L 112.61748012256022 -0.5 Z"/><text text-anchor="middle" pointer-events="none" font-size="8px" fill="#000000" x="87.63701137256022" y="3" font-family="Helvetica Neue, Helvetica, Arial, sans-serif">has_proffile</text></g><g class="relationship" transform="translate(-8.571426391601562 53.02061657678951) rotate(414.02072090154047)"><path class="b-outline" fill="#A5ABB6" stroke="none" d="M 25 0.5 L 79.58839528817646 0.5 L 79.58839528817646 -0.5 L 25 -0.5 Z M 129.54933278817646 0.5 L 184.13772807635291 0.5 L 184.13772807635291 3.5 L 191.13772807635291 0 L 184.13772807635291 -3.5 L 184.13772807635291 -0.5 L 129.54933278817646 -0.5 Z"/><text text-anchor="middle" pointer-events="none" font-size="8px" fill="#000000" x="104.56886403817646" y="3" font-family="Helvetica Neue, Helvetica, Arial, sans-serif">has_proffile</text></g><g class="relationship" transform="translate(-335.9195123669516 27.77555445406003) rotate(329.02808523719943)"><path class="b-outline" fill="#569480" stroke="none" d="M 6.953439040707552 24.018736134675446 L 17.306200844808384 62.65576918623819 A 17.916697508022974 17.916697508022974 0 1 1 -17.306200844808384 62.65576918623819 L -8.765172356425198 30.780216918698923 L -4.901469051268926 31.815493099109005 L -6.4704761275630185 24.148145657226706 L -11.662949835292403 30.00375978339136 L -7.79924653013613 31.039035963801442 L -16.340275018519314 62.91458823134071 A 16.916697508022974 16.916697508022974 0 1 0 16.340275018519314 62.91458823134071 L 5.987513214418485 24.277555179777966 Z"/><text text-anchor="middle" pointer-events="none" font-size="8px" fill="#000000" x="0" y="94.20964923467838" font-family="Helvetica Neue, Helvetica, Arial, sans-serif">acompany…</text></g><g class="relationship" transform="translate(-335.9195123669516 27.77555445406003) rotate(211.32798219373666)"><path class="b-outline" fill="#604A0E" stroke="none" d="M 25 0.5 L 65.98307093517701 0.5 L 65.98307093517701 -0.5 L 25 -0.5 Z M 139.826820935177 0.5 L 180.80989187035402 0.5 L 180.80989187035402 3.5 L 187.80989187035402 0 L 180.80989187035402 -3.5 L 180.80989187035402 -0.5 L 139.826820935177 -0.5 Z"/><text text-anchor="middle" pointer-events="none" font-size="8px" fill="#000000" x="102.90494593517701" y="3" transform="rotate(180 102.90494593517701 0)" font-family="Helvetica Neue, Helvetica, Arial, sans-serif">recommand_drug</text></g><g class="relationship" transform="translate(-335.9195123669516 27.77555445406003) rotate(198.43277503788698)"><path class="b-outline" fill="#604A0E" stroke="none" d="M 24.018736134675446,6.953439040707552 L 24.277555179777966,5.987513214418485 A 130.50814973854253 130.50814973854253 0 0 0 25.579321654339488,6.329136271643009 L 25.330477208349507,7.297679735665113 A 131.50814973854253 131.50814973854253 0 0 1 24.018736134675446,6.953439040707552 Z M 87.11116596203661,8.184515983811735 L 86.89022439950531,7.209228935837544 A 130.50814973854253 130.50814973854253 0 0 0 88.20126021082677,6.905111575346199 L 87.50829865100046,3.9862411985389183 L 95.12745135001482,5.774679665219333 L 89.12520895726188,10.796938744422572 L 88.43224739743556,7.878068367615292 A 131.50814973854253 131.50814973854253 0 0 1 87.11116596203661,8.184515983811735"/><text text-anchor="middle" pointer-events="none" font-size="8px" fill="#000000" x="56.17517575935353" y="13.92097527790932" transform="rotate(180 56.17517575935353 10.92097527790932)" font-family="Helvetica Neue, Helvetica, Arial, sans-serif">recommand_…</text></g><g class="relationship" transform="translate(-335.9195123669516 27.77555445406003) rotate(198.43277503788698)"><path class="b-outline" fill="#ECB5C9" stroke="none" d="M 24.018736134675446,-6.953439040707552 L 24.277555179777966,-5.987513214418485 A 130.50814973854253 130.50814973854253 0 0 1 25.686747970706236,-6.356688282978979 L 25.43872666347488,-7.3254428603406865 A 131.50814973854253 131.50814973854253 0 0 0 24.018736134675446,-6.953439040707552 Z M 87.00216421606828,-8.209160557302965 L 86.78205151278401,-7.233686109737647 A 130.50814973854253 130.50814973854253 0 0 1 88.20126021082677,-6.905111575346199 L 87.50829865100046,-3.9862411985389183 L 95.12745135001482,-5.774679665219333 L 89.12520895726188,-10.796938744422572 L 88.43224739743556,-7.878068367615292 A 131.50814973854253 131.50814973854253 0 0 0 87.00216421606828,-8.209160557302965"/><text text-anchor="middle" pointer-events="none" font-size="8px" fill="#000000" x="56.17517575935349" y="-7.920975277909321" transform="rotate(180 56.17517575935349 -10.92097527790932)" font-family="Helvetica Neue, Helvetica, Arial, sans-serif">common_drug</text></g><g class="relationship" transform="translate(-335.9195123669516 27.77555445406003) rotate(501.4764055513946)"><path class="b-outline" fill="#604A0E" stroke="none" d="M 25 0.5 L 76.44144999656248 0.5 L 76.44144999656248 -0.5 L 25 -0.5 Z M 150.28519999656248 0.5 L 201.72664999312497 0.5 L 201.72664999312497 3.5 L 208.72664999312497 0 L 201.72664999312497 -3.5 L 201.72664999312497 -0.5 L 150.28519999656248 -0.5 Z"/><text text-anchor="middle" pointer-events="none" font-size="8px" fill="#000000" x="113.36332499656248" y="3" transform="rotate(180 113.36332499656248 0)" font-family="Helvetica Neue, Helvetica, Arial, sans-serif">recommand_drug</text></g><g class="relationship" transform="translate(-335.9195123669516 27.77555445406003) rotate(383.23510482930504)"><path class="b-outline" fill="#604A0E" stroke="none" d="M 24.018736134675446,6.953439040707552 L 24.277555179777966,5.987513214418485 A 304.50948229367816 304.50948229367816 0 0 0 63.77152960937786,13.81428592420366 L 63.64240759089046,14.80591463715109 A 305.50948229367816 305.50948229367816 0 0 1 24.018736134675446,6.953439040707552 Z M 137.4240782070025,15.428054267179903 L 137.31169652464837,14.434389153838822 A 304.50948229367816 304.50948229367816 0 0 0 176.93203917229417,7.274721858520507 L 176.20455807708097,4.364262915998314 L 183.84435688738148,6.062342460110064 L 177.90201396591178,11.15533378188343 L 177.17453287069858,8.244874839361238 A 305.50948229367816 305.50948229367816 0 0 1 137.4240782070025,15.428054267179903"/><text text-anchor="middle" pointer-events="none" font-size="8px" fill="#000000" x="100.5186080657264" y="19.852579473038645" font-family="Helvetica Neue, Helvetica, Arial, sans-serif">recommand_drug</text></g><g class="relationship" transform="translate(-335.9195123669516 27.77555445406003) rotate(383.23510482930504)"><path class="b-outline" fill="#ECB5C9" stroke="none" d="M 24.018736134675446,-6.953439040707552 L 24.277555179777966,-5.987513214418485 A 304.50948229367816 304.50948229367816 0 0 1 69.68582388095244,-14.525640817093517 L 69.57612422733534,-15.519605598157852 A 305.50948229367816 305.50948229367816 0 0 0 24.018736134675446,-6.953439040707552 Z M 131.4791702307823,-16.04158263956458 L 131.38624754502487,-15.045909312377603 A 304.50948229367816 304.50948229367816 0 0 1 176.93203917229417,-7.274721858520507 L 176.20455807708097,-4.364262915998314 L 183.84435688738148,-6.062342460110064 L 177.90201396591178,-11.15533378188343 L 177.17453287069858,-8.244874839361238 A 305.50948229367816 305.50948229367816 0 0 0 131.4791702307823,-16.04158263956458"/><text text-anchor="middle" pointer-events="none" font-size="8px" fill="#000000" x="100.51860806572631" y="-13.852579473038645" font-family="Helvetica Neue, Helvetica, Arial, sans-serif">common_drug</text></g><g class="relationship" transform="translate(-335.9195123669516 27.77555445406003) rotate(457.2596743048165)"><path class="b-outline" fill="#DA7194" stroke="none" d="M 25 0.5 L 77.67959119417742 0.5 L 77.67959119417742 -0.5 L 25 -0.5 Z M 128.23427869417742 0.5 L 180.91386988835484 0.5 L 180.91386988835484 3.5 L 187.91386988835484 0 L 180.91386988835484 -3.5 L 180.91386988835484 -0.5 L 128.23427869417742 -0.5 Z"/><text text-anchor="middle" pointer-events="none" font-size="8px" fill="#000000" x="102.95693494417742" y="3" transform="rotate(180 102.95693494417742 0)" font-family="Helvetica Neue, Helvetica, Arial, sans-serif">need_check</text></g><g class="relationship" transform="translate(-335.9195123669516 27.77555445406003) rotate(478.9991617580679)"><path class="b-outline" fill="#DA7194" stroke="none" d="M 25 0.5 L 97.4989476814012 0.5 L 97.4989476814012 -0.5 L 25 -0.5 Z M 148.0536351814012 0.5 L 220.5525828628024 0.5 L 220.5525828628024 3.5 L 227.5525828628024 0 L 220.5525828628024 -3.5 L 220.5525828628024 -0.5 L 148.0536351814012 -0.5 Z"/><text text-anchor="middle" pointer-events="none" font-size="8px" fill="#000000" x="122.7762914314012" y="3" transform="rotate(180 122.7762914314012 0)" font-family="Helvetica Neue, Helvetica, Arial, sans-serif">need_check</text></g><g class="relationship" transform="translate(-335.9195123669516 27.77555445406003) rotate(523.5095825558906)"><path class="b-outline" fill="#DA7194" stroke="none" d="M 25 0.5 L 97.02686400096744 0.5 L 97.02686400096744 -0.5 L 25 -0.5 Z M 147.58155150096744 0.5 L 219.60841550193487 0.5 L 219.60841550193487 3.5 L 226.60841550193487 0 L 219.60841550193487 -3.5 L 219.60841550193487 -0.5 L 147.58155150096744 -0.5 Z"/><text text-anchor="middle" pointer-events="none" font-size="8px" fill="#000000" x="122.30420775096744" y="3" transform="rotate(180 122.30420775096744 0)" font-family="Helvetica Neue, Helvetica, Arial, sans-serif">need_check</text></g><g class="relationship" transform="translate(-335.9195123669516 27.77555445406003) rotate(448.8628759003154)"><path class="b-outline" fill="#DA7194" stroke="none" d="M 25 0.5 L 30.02555830933948 0.5 L 30.02555830933948 -0.5 L 25 -0.5 Z M 80.58024580933949 0.5 L 85.60580411867896 0.5 L 85.60580411867896 3.5 L 92.60580411867896 0 L 85.60580411867896 -3.5 L 85.60580411867896 -0.5 L 80.58024580933949 -0.5 Z"/><text text-anchor="middle" pointer-events="none" font-size="8px" fill="#000000" x="55.30290205933948" y="3" font-family="Helvetica Neue, Helvetica, Arial, sans-serif">need_check</text></g><g class="relationship" transform="translate(-335.9195123669516 27.77555445406003) rotate(406.78376918157454)"><path class="b-outline" fill="#DA7194" stroke="none" d="M 25 0.5 L 88.57709438505044 0.5 L 88.57709438505044 -0.5 L 25 -0.5 Z M 139.13178188505043 0.5 L 202.7088762701009 0.5 L 202.7088762701009 3.5 L 209.7088762701009 0 L 202.7088762701009 -3.5 L 202.7088762701009 -0.5 L 139.13178188505043 -0.5 Z"/><text text-anchor="middle" pointer-events="none" font-size="8px" fill="#000000" x="113.85443813505044" y="3" font-family="Helvetica Neue, Helvetica, Arial, sans-serif">need_check</text></g><g class="relationship" transform="translate(-335.9195123669516 27.77555445406003) rotate(406.54528813638694)"><path class="b-outline" fill="#FFC454" stroke="none" d="M 25 0.5 L 39.415342436303106 0.5 L 39.415342436303106 -0.5 L 25 -0.5 Z M 87.6145611863031 0.5 L 102.02990362260621 0.5 L 102.02990362260621 3.5 L 109.02990362260621 0 L 102.02990362260621 -3.5 L 102.02990362260621 -0.5 L 87.6145611863031 -0.5 Z"/><text text-anchor="middle" pointer-events="none" font-size="8px" fill="#000000" x="63.514951811303106" y="3" font-family="Helvetica Neue, Helvetica, Arial, sans-serif">belongs_to</text></g><g class="relationship" transform="translate(-335.9195123669516 27.77555445406003) rotate(365.2856193975206)"><path class="b-outline" fill="#ECB5C9" stroke="none" d="M 25 1.5 L 30.894367812608166 1.5 L 30.894367812608166 -1.5 L 25 -1.5 Z M 89.57014906260817 1.5 L 95.46451687521633 1.5 L 95.46451687521633 4.5 L 104.46451687521633 0 L 95.46451687521633 -4.5 L 95.46451687521633 -1.5 L 89.57014906260817 -1.5 Z"/><text text-anchor="middle" pointer-events="none" font-size="8px" fill="#000000" x="60.232258437608166" y="3" font-family="Helvetica Neue, Helvetica, Arial, sans-serif">has_symptom</text></g><g class="relationship" transform="translate(-335.9195123669516 27.77555445406003) rotate(431.2724012928242)"><path class="b-outline" fill="#ECB5C9" stroke="none" d="M 25 1.5 L 66.08237047587716 1.5 L 66.08237047587716 -1.5 L 25 -1.5 Z M 124.75815172587716 1.5 L 165.8405222017543 1.5 L 165.8405222017543 4.5 L 174.8405222017543 0 L 165.8405222017543 -4.5 L 165.8405222017543 -1.5 L 124.75815172587716 -1.5 Z"/><text text-anchor="middle" pointer-events="none" font-size="8px" fill="#000000" x="95.42026110087716" y="3" font-family="Helvetica Neue, Helvetica, Arial, sans-serif">has_symptom</text></g><g class="relationship" transform="translate(-335.9195123669516 27.77555445406003) rotate(357.55615606778974)"><path class="b-outline" fill="#ECB5C9" stroke="none" d="M 25 1.5 L 77.65515215462943 1.5 L 77.65515215462943 -1.5 L 25 -1.5 Z M 136.33093340462943 1.5 L 188.98608555925887 1.5 L 188.98608555925887 4.5 L 197.98608555925887 0 L 188.98608555925887 -4.5 L 188.98608555925887 -1.5 L 136.33093340462943 -1.5 Z"/><text text-anchor="middle" pointer-events="none" font-size="8px" fill="#000000" x="106.99304277962943" y="3" font-family="Helvetica Neue, Helvetica, Arial, sans-serif">has_symptom</text></g><g class="relationship" transform="translate(-335.9195123669516 27.77555445406003) rotate(317.3354459960689)"><path class="b-outline" fill="#ECB5C9" stroke="none" d="M 25 1.5 L 26.48826890513041 1.5 L 26.48826890513041 -1.5 L 25 -1.5 Z M 52.04686265513041 1.5 L 53.53513156026082 1.5 L 53.53513156026082 4.5 L 62.53513156026082 0 L 53.53513156026082 -4.5 L 53.53513156026082 -1.5 L 52.04686265513041 -1.5 Z"/><text text-anchor="middle" pointer-events="none" font-size="8px" fill="#000000" x="39.26756578013041" y="3" font-family="Helvetica Neue, Helvetica, Arial, sans-serif">has…</text></g><g class="relationship" transform="translate(-335.9195123669516 27.77555445406003) rotate(302.50095153348957)"><path class="b-outline" fill="#4C8EDA" stroke="none" d="M 25 0.5 L 69.34859545313714 0.5 L 69.34859545313714 -0.5 L 25 -0.5 Z M 110.32906420313714 0.5 L 154.67765965627427 0.5 L 154.67765965627427 3.5 L 161.67765965627427 0 L 154.67765965627427 -3.5 L 154.67765965627427 -0.5 L 110.32906420313714 -0.5 Z"/><text text-anchor="middle" pointer-events="none" font-size="8px" fill="#000000" x="89.83882982813714" y="3" font-family="Helvetica Neue, Helvetica, Arial, sans-serif">cure_way</text></g><g class="relationship" transform="translate(-335.9195123669516 27.77555445406003) rotate(318.1842378803108)"><path class="b-outline" fill="#4C8EDA" stroke="none" d="M 25 0.5 L 105.96272605391124 0.5 L 105.96272605391124 -0.5 L 25 -0.5 Z M 146.94319480391124 0.5 L 227.90592085782248 0.5 L 227.90592085782248 3.5 L 234.90592085782248 0 L 227.90592085782248 -3.5 L 227.90592085782248 -0.5 L 146.94319480391124 -0.5 Z"/><text text-anchor="middle" pointer-events="none" font-size="8px" fill="#000000" x="126.45296042891124" y="3" font-family="Helvetica Neue, Helvetica, Arial, sans-serif">cure_way</text></g><g class="relationship" transform="translate(-335.9195123669516 27.77555445406003) rotate(274.0907346326974)"><path class="b-outline" fill="#4C8EDA" stroke="none" d="M 25 0.5 L 47.46310519270331 0.5 L 47.46310519270331 -0.5 L 25 -0.5 Z M 88.44357394270331 0.5 L 110.90667913540662 0.5 L 110.90667913540662 3.5 L 117.90667913540662 0 L 110.90667913540662 -3.5 L 110.90667913540662 -0.5 L 88.44357394270331 -0.5 Z"/><text text-anchor="middle" pointer-events="none" font-size="8px" fill="#000000" x="67.95333956770331" y="3" font-family="Helvetica Neue, Helvetica, Arial, sans-serif">cure_way</text></g><g class="relationship" transform="translate(-173.88565586324106 -54.13187033674369) rotate(513.183596652327)"><path class="b-outline" fill="#A5ABB6" stroke="none" d="M 25 0.5 L 61.88514280940362 0.5 L 61.88514280940362 -0.5 L 25 -0.5 Z M 112.67420530940362 0.5 L 149.55934811880724 0.5 L 149.55934811880724 3.5 L 156.55934811880724 0 L 149.55934811880724 -3.5 L 149.55934811880724 -0.5 L 112.67420530940362 -0.5 Z"/><text text-anchor="middle" pointer-events="none" font-size="8px" fill="#000000" x="87.27967405940362" y="3" transform="rotate(180 87.27967405940362 0)" font-family="Helvetica Neue, Helvetica, Arial, sans-serif">has_disease</text></g><g class="relationship" transform="translate(-389.5612647604118 -191.63518105387595) rotate(436.2617562225415)"><path class="b-outline" fill="#A5ABB6" stroke="none" d="M 25 0.5 L 84.0418540029099 0.5 L 84.0418540029099 -0.5 L 25 -0.5 Z M 134.8309165029099 0.5 L 193.8727705058198 0.5 L 193.8727705058198 3.5 L 200.8727705058198 0 L 193.8727705058198 -3.5 L 193.8727705058198 -0.5 L 134.8309165029099 -0.5 Z"/><text text-anchor="middle" pointer-events="none" font-size="8px" fill="#000000" x="109.4363852529099" y="3" font-family="Helvetica Neue, Helvetica, Arial, sans-serif">has_disease</text></g><g class="relationship" transform="translate(-424.1141236772395 -99.64876967684076) rotate(415.3116035955469)"><path class="b-outline" fill="#A5ABB6" stroke="none" d="M 25 0.5 L 48.5897378702376 0.5 L 48.5897378702376 -0.5 L 25 -0.5 Z M 99.3788003702376 0.5 L 122.9685382404752 0.5 L 122.9685382404752 3.5 L 129.9685382404752 0 L 122.9685382404752 -3.5 L 122.9685382404752 -0.5 L 99.3788003702376 -0.5 Z"/><text text-anchor="middle" pointer-events="none" font-size="8px" fill="#000000" x="73.9842691202376" y="3" font-family="Helvetica Neue, Helvetica, Arial, sans-serif">has_disease</text></g><g class="relationship" transform="translate(-294.4820161449287 -205.37033888447422) rotate(460.0780579055611)"><path class="b-outline" fill="#A5ABB6" stroke="none" d="M 25 0.5 L 89.50529315207983 0.5 L 89.50529315207983 -0.5 L 25 -0.5 Z M 140.29435565207984 0.5 L 204.79964880415966 0.5 L 204.79964880415966 3.5 L 211.79964880415966 0 L 204.79964880415966 -3.5 L 204.79964880415966 -0.5 L 140.29435565207984 -0.5 Z"/><text text-anchor="middle" pointer-events="none" font-size="8px" fill="#000000" x="114.89982440207983" y="3" transform="rotate(180 114.89982440207983 0)" font-family="Helvetica Neue, Helvetica, Arial, sans-serif">has_disease</text></g><g class="relationship" transform="translate(-485.8180298513785 -173.06595051867265) rotate(413.264095628779)"><path class="b-outline" fill="#A5ABB6" stroke="none" d="M 25 0.5 L 96.41196864499871 0.5 L 96.41196864499871 -0.5 L 25 -0.5 Z M 147.2010311449987 0.5 L 218.61299978999742 0.5 L 218.61299978999742 3.5 L 225.61299978999742 0 L 218.61299978999742 -3.5 L 218.61299978999742 -0.5 L 147.2010311449987 -0.5 Z"/><text text-anchor="middle" pointer-events="none" font-size="8px" fill="#000000" x="121.80649989499871" y="3" font-family="Helvetica Neue, Helvetica, Arial, sans-serif">has_disease</text></g><g class="relationship" transform="translate(-542.9666510849643 6.309179848406176) rotate(365.91920236781766)"><path class="b-outline" fill="#A5ABB6" stroke="none" d="M 25 0.5 L 75.18395222524362 0.5 L 75.18395222524362 -0.5 L 25 -0.5 Z M 125.97301472524362 0.5 L 176.15696695048723 0.5 L 176.15696695048723 3.5 L 183.15696695048723 0 L 176.15696695048723 -3.5 L 176.15696695048723 -0.5 L 125.97301472524362 -0.5 Z"/><text text-anchor="middle" pointer-events="none" font-size="8px" fill="#000000" x="100.57848347524362" y="3" font-family="Helvetica Neue, Helvetica, Arial, sans-serif">has_disease</text></g><g class="relationship" transform="translate(-335.9195123669516 27.77555445406003) rotate(483.7081139359572)"><path class="b-outline" fill="#D9C8AE" stroke="none" d="M 25 0.5 L 55.4944185520213 0.5 L 55.4944185520213 -0.5 L 25 -0.5 Z M 99.2014498020213 0.5 L 129.6958683540426 0.5 L 129.6958683540426 3.5 L 136.6958683540426 0 L 129.6958683540426 -3.5 L 129.6958683540426 -0.5 L 99.2014498020213 -0.5 Z"/><text text-anchor="middle" pointer-events="none" font-size="8px" fill="#000000" x="77.3479341770213" y="3" transform="rotate(180 77.3479341770213 0)" font-family="Helvetica Neue, Helvetica, Arial, sans-serif">has_video</text></g><g class="relationship" transform="translate(-335.9195123669516 27.77555445406003) rotate(520.2853241966789)"><path class="b-outline" fill="#57C7E3" stroke="none" d="M 25 0.5 L 49.443032072161756 0.5 L 49.443032072161756 -0.5 L 25 -0.5 Z M 98.72037582216176 0.5 L 123.16340789432351 0.5 L 123.16340789432351 3.5 L 130.1634078943235 0 L 123.16340789432351 -3.5 L 123.16340789432351 -0.5 L 98.72037582216176 -0.5 Z"/><text text-anchor="middle" pointer-events="none" font-size="8px" fill="#000000" x="74.08170394716176" y="3" transform="rotate(180 74.08170394716176 0)" font-family="Helvetica Neue, Helvetica, Arial, sans-serif">has_picture</text></g></g><g class="layer nodes"><g class="node" aria-label="graph-node45932" transform="translate(-8.571426391601562,53.02061657678951)" style="touch-action: none; -webkit-tap-highlight-color: rgba(0, 0, 0, 0);"><circle class="b-outline" cx="0" cy="0" r="25" fill="#8DCC93" stroke="#5db665" stroke-width="2px"/><text class="caption" text-anchor="middle" pointer-events="none" x="0" y="5" font-size="10px" fill="#2A2C34" font-family="Helvetica Neue, Helvetica, Arial, sans-serif"> 患者01</text></g><g class="node" aria-label="graph-node5896" transform="translate(-335.9195123669516,27.77555445406003)" style="touch-action: none; -webkit-tap-highlight-color: rgba(0, 0, 0, 0);"><circle class="b-outline" cx="0" cy="0" r="25" fill="#4C8EDA" stroke="#2870c2" stroke-width="2px"/><text class="caption" text-anchor="middle" pointer-events="none" x="0" y="5" font-size="10px" fill="#FFFFFF" font-family="Helvetica Neue, Helvetica, Arial, sans-serif"> 眼睑基底…</text></g><g class="node" aria-label="graph-node45994" transform="translate(-71.33639723813431,193.23291419485764)" style="touch-action: none; -webkit-tap-highlight-color: rgba(0, 0, 0, 0);"><circle class="b-outline" cx="0" cy="0" r="25" fill="#FFC454" stroke="#d7a013" stroke-width="2px"/><text class="caption" text-anchor="middle" pointer-events="none" x="0" y="5" font-size="10px" fill="#2A2C34" font-family="Helvetica Neue, Helvetica, Arial, sans-serif"> 血压-14…</text></g><g class="node" aria-label="graph-node46000" transform="translate(19.95674030216755,229.35009912521573)" style="touch-action: none; -webkit-tap-highlight-color: rgba(0, 0, 0, 0);"><circle class="b-outline" cx="0" cy="0" r="25" fill="#FFC454" stroke="#d7a013" stroke-width="2px"/><text class="caption" text-anchor="middle" pointer-events="none" x="0" y="5" font-size="10px" fill="#2A2C34" font-family="Helvetica Neue, Helvetica, Arial, sans-serif"> 
主诉-发…</text></g><g class="node" aria-label="graph-node46001" transform="translate(69.77716420304287,143.8600252868758)" style="touch-action: none; -webkit-tap-highlight-color: rgba(0, 0, 0, 0);"><circle class="b-outline" cx="0" cy="0" r="25" fill="#FFC454" stroke="#d7a013" stroke-width="2px"/><text class="caption" text-anchor="middle" pointer-events="none" x="0" y="5" font-size="10px" fill="#2A2C34" font-family="Helvetica Neue, Helvetica, Arial, sans-serif"> 辅助检查…</text></g><g class="node" aria-label="graph-node46012" transform="translate(121.81760969120882,57.21208846359107)" style="touch-action: none; -webkit-tap-highlight-color: rgba(0, 0, 0, 0);"><circle class="b-outline" cx="0" cy="0" r="25" fill="#FFC454" stroke="#d7a013" stroke-width="2px"/><text class="caption" text-anchor="middle" pointer-events="none" x="0" y="5" font-size="10px" fill="#2A2C34" font-family="Helvetica Neue, Helvetica, Arial, sans-serif"> 呼吸-20…</text></g><g class="node" aria-label="graph-node46032" transform="translate(167.50132258148932,144.13505494934253)" style="touch-action: none; -webkit-tap-highlight-color: rgba(0, 0, 0, 0);"><circle class="b-outline" cx="0" cy="0" r="25" fill="#FFC454" stroke="#d7a013" stroke-width="2px"/><text class="caption" text-anchor="middle" pointer-events="none" x="0" y="5" font-size="10px" fill="#2A2C34" font-family="Helvetica Neue, Helvetica, Arial, sans-serif"> 治疗方案…</text></g><g class="node" aria-label="graph-node46045" transform="translate(219.52866988743742,62.87241381534196)" style="touch-action: none; -webkit-tap-highlight-color: rgba(0, 0, 0, 0);"><circle class="b-outline" cx="0" cy="0" r="25" fill="#FFC454" stroke="#d7a013" stroke-width="2px"/><text class="caption" text-anchor="middle" pointer-events="none" x="0" y="5" font-size="10px" fill="#2A2C34" font-family="Helvetica Neue, Helvetica, Arial, sans-serif"> 治疗经过…</text></g><g class="node" aria-label="graph-node46047" transform="translate(177.39096903121248,-24.17766507905589)" style="touch-action: none; -webkit-tap-highlight-color: rgba(0, 0, 0, 0);"><circle class="b-outline" cx="0" cy="0" r="25" fill="#FFC454" stroke="#d7a013" stroke-width="2px"/><text class="caption" text-anchor="middle" pointer-events="none" x="0" y="5" font-size="10px" fill="#2A2C34" font-family="Helvetica Neue, Helvetica, Arial, sans-serif"> 现病史-…</text></g><g class="node" aria-label="graph-node46048" transform="translate(79.6498407725658,-33.42601860089589)" style="touch-action: none; -webkit-tap-highlight-color: rgba(0, 0, 0, 0);"><circle class="b-outline" cx="0" cy="0" r="25" fill="#FFC454" stroke="#d7a013" stroke-width="2px"/><text class="caption" text-anchor="middle" pointer-events="none" x="0" y="5" font-size="10px" fill="#2A2C34" font-family="Helvetica Neue, Helvetica, Arial, sans-serif"> 专科检查…</text></g><g class="node" aria-label="graph-node46064" transform="translate(134.42358677128001,-113.21604252913855)" style="touch-action: none; -webkit-tap-highlight-color: rgba(0, 0, 0, 0);"><circle class="b-outline" cx="0" cy="0" r="25" fill="#FFC454" stroke="#d7a013" stroke-width="2px"/><text class="caption" text-anchor="middle" pointer-events="none" x="0" y="5" font-size="10px" fill="#2A2C34" font-family="Helvetica Neue, Helvetica, Arial, sans-serif"> 体温-36.…</text></g><g class="node" aria-label="graph-node46066" transform="translate(-55.757377598633965,-89.88901745614872)" style="touch-action: none; -webkit-tap-highlight-color: rgba(0, 0, 0, 0);"><circle class="b-outline" cx="0" cy="0" r="25" fill="#FFC454" stroke="#d7a013" stroke-width="2px"/><text class="caption" text-anchor="middle" pointer-events="none" x="0" y="5" font-size="10px" fill="#2A2C34" font-family="Helvetica Neue, Helvetica, Arial, sans-serif"> 入院诊断…</text></g><g class="node" aria-label="graph-node46087" transform="translate(37.44788615164382,-123.34843467862713)" style="touch-action: none; -webkit-tap-highlight-color: rgba(0, 0, 0, 0);"><circle class="b-outline" cx="0" cy="0" r="25" fill="#FFC454" stroke="#d7a013" stroke-width="2px"/><text class="caption" text-anchor="middle" pointer-events="none" x="0" y="5" font-size="10px" fill="#2A2C34" font-family="Helvetica Neue, Helvetica, Arial, sans-serif"> 既往史-…</text></g><g class="node" aria-label="graph-node46090" transform="translate(118.40789689483594,227.9256449657008)" style="touch-action: none; -webkit-tap-highlight-color: rgba(0, 0, 0, 0);"><circle class="b-outline" cx="0" cy="0" r="25" fill="#FFC454" stroke="#d7a013" stroke-width="2px"/><text class="caption" text-anchor="middle" pointer-events="none" x="0" y="5" font-size="10px" fill="#2A2C34" font-family="Helvetica Neue, Helvetica, Arial, sans-serif"> 脉搏-71…</text></g><g class="node" aria-label="graph-node9765" transform="translate(-517.7027870658768,-82.87204433419598)" style="touch-action: none; -webkit-tap-highlight-color: rgba(0, 0, 0, 0);"><circle class="b-outline" cx="0" cy="0" r="25" fill="#DA7194" stroke="#cc3c6c" stroke-width="2px"/><text class="caption" text-anchor="middle" pointer-events="none" x="0" y="5" font-size="10px" fill="#FFFFFF" font-family="Helvetica Neue, Helvetica, Arial, sans-serif"> 红霉素…</text></g><g class="node" aria-label="graph-node10045" transform="translate(-449.2424661594237,-9.993986382108561)" style="touch-action: none; -webkit-tap-highlight-color: rgba(0, 0, 0, 0);"><circle class="b-outline" cx="0" cy="0" r="25" fill="#DA7194" stroke="#cc3c6c" stroke-width="2px"/><text class="caption" text-anchor="middle" pointer-events="none" x="0" y="5" font-size="10px" fill="#FFFFFF" font-family="Helvetica Neue, Helvetica, Arial, sans-serif"> 妥布霉素…</text></g><g class="node" aria-label="graph-node10802" transform="translate(-518.775963315528,173.3491278233348)" style="touch-action: none; -webkit-tap-highlight-color: rgba(0, 0, 0, 0);"><circle class="b-outline" cx="0" cy="0" r="25" fill="#DA7194" stroke="#cc3c6c" stroke-width="2px"/><text class="caption" text-anchor="middle" pointer-events="none" x="0" y="5" font-size="10px" fill="#FFFFFF" font-family="Helvetica Neue, Helvetica, Arial, sans-serif"> 盐酸洛美…</text></g><g class="node" aria-label="graph-node12322" transform="translate(-144.69938356090745,109.87132441136775)" style="touch-action: none; -webkit-tap-highlight-color: rgba(0, 0, 0, 0);"><circle class="b-outline" cx="0" cy="0" r="25" fill="#DA7194" stroke="#cc3c6c" stroke-width="2px"/><text class="caption" text-anchor="middle" pointer-events="none" x="0" y="5" font-size="10px" fill="#FFFFFF" font-family="Helvetica Neue, Helvetica, Arial, sans-serif"> 妥布霉素…</text></g><g class="node" aria-label="graph-node17660" transform="translate(-362.8246856364544,238.98262735213635)" style="touch-action: none; -webkit-tap-highlight-color: rgba(0, 0, 0, 0);"><circle class="b-outline" cx="0" cy="0" r="25" fill="#4C8EDA" stroke="#2870c2" stroke-width="2px"/><text class="caption" text-anchor="middle" pointer-events="none" x="0" y="5" font-size="10px" fill="#FFFFFF" font-family="Helvetica Neue, Helvetica, Arial, sans-serif"> 皮肤涂片…</text></g><g class="node" aria-label="graph-node18652" transform="translate(-458.3562025421324,248.6648117972352)" style="touch-action: none; -webkit-tap-highlight-color: rgba(0, 0, 0, 0);"><circle class="b-outline" cx="0" cy="0" r="25" fill="#4C8EDA" stroke="#2870c2" stroke-width="2px"/><text class="caption" text-anchor="middle" pointer-events="none" x="0" y="5" font-size="10px" fill="#FFFFFF" font-family="Helvetica Neue, Helvetica, Arial, sans-serif"> 尿常规</text></g><g class="node" aria-label="graph-node19081" transform="translate(-577.1785748253004,99.19585642144777)" style="touch-action: none; -webkit-tap-highlight-color: rgba(0, 0, 0, 0);"><circle class="b-outline" cx="0" cy="0" r="25" fill="#4C8EDA" stroke="#2870c2" stroke-width="2px"/><text class="caption" text-anchor="middle" pointer-events="none" x="0" y="5" font-size="10px" fill="#FFFFFF" font-family="Helvetica Neue, Helvetica, Arial, sans-serif"> 血常规</text></g><g class="node" aria-label="graph-node19180" transform="translate(-333.5855949961175,145.35819769747076)" style="touch-action: none; -webkit-tap-highlight-color: rgba(0, 0, 0, 0);"><circle class="b-outline" cx="0" cy="0" r="25" fill="#4C8EDA" stroke="#2870c2" stroke-width="2px"/><text class="caption" text-anchor="middle" pointer-events="none" x="0" y="5" font-size="10px" fill="#FFFFFF" font-family="Helvetica Neue, Helvetica, Arial, sans-serif"> 便常规</text></g><g class="node" aria-label="graph-node19884" transform="translate(-175.2017687117925,198.82544037734291)" style="touch-action: none; -webkit-tap-highlight-color: rgba(0, 0, 0, 0);"><circle class="b-outline" cx="0" cy="0" r="25" fill="#4C8EDA" stroke="#2870c2" stroke-width="2px"/><text class="caption" text-anchor="middle" pointer-events="none" x="0" y="5" font-size="10px" fill="#FFFFFF" font-family="Helvetica Neue, Helvetica, Arial, sans-serif"> CT检查</text></g><g class="node" aria-label="graph-node20962" transform="translate(-243.73629053117583,125.07030599319117)" style="touch-action: none; -webkit-tap-highlight-color: rgba(0, 0, 0, 0);"><circle class="b-outline" cx="0" cy="0" r="25" fill="#D9C8AE" stroke="#c0a378" stroke-width="2px"/><text class="caption" text-anchor="middle" pointer-events="none" x="0" y="5" font-size="10px" fill="#2A2C34" font-family="Helvetica Neue, Helvetica, Arial, sans-serif"> 眼科</text></g><g class="node" aria-label="graph-node38982" transform="translate(-207.00549793231377,39.701912325563285)" style="touch-action: none; -webkit-tap-highlight-color: rgba(0, 0, 0, 0);"><circle class="b-outline" cx="0" cy="0" r="25" fill="#D9C8AE" stroke="#c0a378" stroke-width="2px"/><text class="caption" text-anchor="middle" pointer-events="none" x="0" y="5" font-size="10px" fill="#2A2C34" font-family="Helvetica Neue, Helvetica, Arial, sans-serif"> 睑结膜泪…</text></g><g class="node" aria-label="graph-node39305" transform="translate(-271.756873080088,217.0356665580469)" style="touch-action: none; -webkit-tap-highlight-color: rgba(0, 0, 0, 0);"><circle class="b-outline" cx="0" cy="0" r="25" fill="#D9C8AE" stroke="#c0a378" stroke-width="2px"/><text class="caption" text-anchor="middle" pointer-events="none" x="0" y="5" font-size="10px" fill="#2A2C34" font-family="Helvetica Neue, Helvetica, Arial, sans-serif"> 珍珠丘疹</text></g><g class="node" aria-label="graph-node40741" transform="translate(-113.1362341133549,18.26738514437592)" style="touch-action: none; -webkit-tap-highlight-color: rgba(0, 0, 0, 0);"><circle class="b-outline" cx="0" cy="0" r="25" fill="#D9C8AE" stroke="#c0a378" stroke-width="2px"/><text class="caption" text-anchor="middle" pointer-events="none" x="0" y="5" font-size="10px" fill="#2A2C34" font-family="Helvetica Neue, Helvetica, Arial, sans-serif"> 结节</text></g><g class="node" aria-label="graph-node43726" transform="translate(-271.5519541534609,-31.547431874217914)" style="touch-action: none; -webkit-tap-highlight-color: rgba(0, 0, 0, 0);"><circle class="b-outline" cx="0" cy="0" r="25" fill="#D9C8AE" stroke="#c0a378" stroke-width="2px"/><text class="caption" text-anchor="middle" pointer-events="none" x="0" y="5" font-size="10px" fill="#2A2C34" font-family="Helvetica Neue, Helvetica, Arial, sans-serif"> 结痂</text></g><g class="node" aria-label="graph-node44289" transform="translate(-235.6150642536339,-129.66512105079966)" style="touch-action: none; -webkit-tap-highlight-color: rgba(0, 0, 0, 0);"><circle class="b-outline" cx="0" cy="0" r="25" fill="#F16667" stroke="#eb2728" stroke-width="2px"/><text class="caption" text-anchor="middle" pointer-events="none" x="0" y="5" font-size="10px" fill="#FFFFFF" font-family="Helvetica Neue, Helvetica, Arial, sans-serif"> 药物治疗</text></g><g class="node" aria-label="graph-node44557" transform="translate(-142.213550827311,-145.51347624597)" style="touch-action: none; -webkit-tap-highlight-color: rgba(0, 0, 0, 0);"><circle class="b-outline" cx="0" cy="0" r="25" fill="#F16667" stroke="#eb2728" stroke-width="2px"/><text class="caption" text-anchor="middle" pointer-events="none" x="0" y="5" font-size="10px" fill="#FFFFFF" font-family="Helvetica Neue, Helvetica, Arial, sans-serif"> 支持性…</text></g><g class="node" aria-label="graph-node44652" transform="translate(-325.72510062738587,-114.7670458828016)" style="touch-action: none; -webkit-tap-highlight-color: rgba(0, 0, 0, 0);"><circle class="b-outline" cx="0" cy="0" r="25" fill="#F16667" stroke="#eb2728" stroke-width="2px"/><text class="caption" text-anchor="middle" pointer-events="none" x="0" y="5" font-size="10px" fill="#FFFFFF" font-family="Helvetica Neue, Helvetica, Arial, sans-serif"> 手术治疗</text></g><g class="node" aria-label="graph-node45886" transform="translate(-173.88565586324106,-54.13187033674369)" style="touch-action: none; -webkit-tap-highlight-color: rgba(0, 0, 0, 0);"><circle class="b-outline" cx="0" cy="0" r="25" fill="#8DCC93" stroke="#5db665" stroke-width="2px"/><text class="caption" text-anchor="middle" pointer-events="none" x="0" y="5" font-size="10px" fill="#2A2C34" font-family="Helvetica Neue, Helvetica, Arial, sans-serif"> 患者91</text></g><g class="node" aria-label="graph-node45899" transform="translate(-389.5612647604118,-191.63518105387595)" style="touch-action: none; -webkit-tap-highlight-color: rgba(0, 0, 0, 0);"><circle class="b-outline" cx="0" cy="0" r="25" fill="#8DCC93" stroke="#5db665" stroke-width="2px"/><text class="caption" text-anchor="middle" pointer-events="none" x="0" y="5" font-size="10px" fill="#2A2C34" font-family="Helvetica Neue, Helvetica, Arial, sans-serif"> 患者46</text></g><g class="node" aria-label="graph-node45903" transform="translate(-424.1141236772395,-99.64876967684076)" style="touch-action: none; -webkit-tap-highlight-color: rgba(0, 0, 0, 0);"><circle class="b-outline" cx="0" cy="0" r="25" fill="#8DCC93" stroke="#5db665" stroke-width="2px"/><text class="caption" text-anchor="middle" pointer-events="none" x="0" y="5" font-size="10px" fill="#2A2C34" font-family="Helvetica Neue, Helvetica, Arial, sans-serif"> 患者31</text></g><g class="node" aria-label="graph-node45917" transform="translate(-294.4820161449287,-205.37033888447422)" style="touch-action: none; -webkit-tap-highlight-color: rgba(0, 0, 0, 0);"><circle class="b-outline" cx="0" cy="0" r="25" fill="#8DCC93" stroke="#5db665" stroke-width="2px"/><text class="caption" text-anchor="middle" pointer-events="none" x="0" y="5" font-size="10px" fill="#2A2C34" font-family="Helvetica Neue, Helvetica, Arial, sans-serif"> 患者61</text></g><g class="node" aria-label="graph-node45923" transform="translate(-485.8180298513785,-173.06595051867265)" style="touch-action: none; -webkit-tap-highlight-color: rgba(0, 0, 0, 0);"><circle class="b-outline" cx="0" cy="0" r="25" fill="#8DCC93" stroke="#5db665" stroke-width="2px"/><text class="caption" text-anchor="middle" pointer-events="none" x="0" y="5" font-size="10px" fill="#2A2C34" font-family="Helvetica Neue, Helvetica, Arial, sans-serif"> 患者16</text></g><g class="node" aria-label="graph-node45940" transform="translate(-542.9666510849643,6.309179848406176)" style="touch-action: none; -webkit-tap-highlight-color: rgba(0, 0, 0, 0);"><circle class="b-outline" cx="0" cy="0" r="25" fill="#8DCC93" stroke="#5db665" stroke-width="2px"/><text class="caption" text-anchor="middle" pointer-events="none" x="0" y="5" font-size="10px" fill="#2A2C34" font-family="Helvetica Neue, Helvetica, Arial, sans-serif"> 患者76</text></g><g class="node" aria-label="graph-node61185" transform="translate(-425.65461350283397,162.2863921843368)" style="touch-action: none; -webkit-tap-highlight-color: rgba(0, 0, 0, 0);"><circle class="b-outline" cx="0" cy="0" r="25" fill="#57C7E3" stroke="#23b3d7" stroke-width="2px"/><text class="caption" text-anchor="middle" pointer-events="none" x="0" y="5" font-size="10px" fill="#2A2C34" font-family="Helvetica Neue, Helvetica, Arial, sans-serif"> 视频5534</text></g><g class="node" aria-label="graph-node64961" transform="translate(-481.98788831920524,80.11781936542305)" style="touch-action: none; -webkit-tap-highlight-color: rgba(0, 0, 0, 0);"><circle class="b-outline" cx="0" cy="0" r="25" fill="#F79767" stroke="#f36924" stroke-width="2px"/><text class="caption" text-anchor="middle" pointer-events="none" x="0" y="5" font-size="10px" fill="#FFFFFF" font-family="Helvetica Neue, Helvetica, Arial, sans-serif"> 图像5534</text></g></g></svg>